<svg width="543" height="652" viewBox="0 0 543 652" fill="none" xmlns="http://www.w3.org/2000/svg">
<g opacity="0.5">
<path d="M119.898 31.6866C144.764 29.6713 159.887 35.9712 170.041 47.1209C180.27 58.3534 185.592 74.6368 190.506 92.9361C191.334 96.0222 192.151 99.1636 192.977 102.344C201.904 136.698 212.004 175.565 251.602 197.953C291.631 220.584 331.852 209.445 366.929 199.729C369.754 198.947 372.546 198.173 375.302 197.428C393.878 192.402 410.727 188.646 425.286 191.428C439.714 194.184 452.05 203.402 461.504 224.793C480.622 268.047 490.488 294.223 492.657 320.981C494.825 347.739 489.304 375.162 477.401 420.93C465.499 466.695 456.929 493.463 441.81 516.487C426.688 539.516 404.972 558.864 366.596 589.665C347.508 604.984 332.406 611.009 318.962 611.689C305.507 612.37 293.549 607.708 280.69 601.291C277.398 599.648 274.051 597.892 270.613 596.087C247.203 583.803 219.51 569.272 175.466 572.841C132.8 576.299 103.853 594.392 78.3505 610.331C73.6859 613.247 69.1365 616.09 64.6394 618.759C50.0743 627.402 36.0919 634.203 20.4736 635.881C4.88419 637.555 -12.4517 634.136 -33.7235 622.11C-76.5595 597.891 -101.107 582.293 -119.741 562C-138.37 541.711 -151.139 516.672 -170.256 473.421C-179.773 451.889 -181.669 437.196 -178.977 425.834C-176.285 414.478 -168.966 406.249 -159.538 397.716C-157.103 395.512 -154.532 393.293 -151.875 390.999C-133.979 375.55 -112.202 356.751 -101.762 316.606C-91.9577 278.907 -98.6189 247.225 -104.565 218.945C-105.879 212.694 -107.158 206.61 -108.217 200.664C-111.148 184.203 -112.4 168.814 -108.215 153.741C-104.037 138.694 -94.4051 123.846 -75.3467 108.55C-36.9739 77.7526 -13.2233 60.6089 13.4293 50.1161C40.0846 39.6222 69.7088 35.7544 119.898 31.6866Z" stroke="#09D8D2" stroke-width="2"/>
<path d="M126.202 90.9166C142.43 89.6483 151.971 89.1408 157.769 89.9003C160.658 90.2787 162.555 90.9654 163.875 91.9807C165.186 92.9887 165.984 94.3635 166.591 96.2397C167.127 97.8959 167.5 99.8961 167.954 102.329C168.018 102.677 168.085 103.034 168.154 103.399C168.702 106.309 169.392 109.753 170.585 113.787C172.972 121.859 177.362 132.271 186.619 145.55C195.325 158.039 198.06 168.43 200.448 177.503C200.576 177.988 200.703 178.47 200.829 178.948C203.327 188.376 205.785 196.43 214.869 203.793C223.913 211.125 239.487 217.741 268.1 224.515C296.727 231.292 338.472 238.24 399.918 246.195C430.629 250.171 454.14 254.479 471.74 259.112C489.35 263.749 500.997 268.7 508.014 273.939C515.007 279.161 517.348 284.619 516.504 290.334C515.65 296.12 511.52 302.294 505.241 308.869C498.975 315.431 490.64 322.321 481.493 329.546C478.754 331.709 475.942 333.903 473.093 336.126C466.436 341.318 459.574 346.671 452.958 352.174C443.506 360.035 434.53 368.222 427.324 376.729C420.119 385.235 414.661 394.086 412.28 403.275C410.886 408.653 409.564 413.86 408.283 418.901C400.897 447.978 394.916 471.52 384.852 490.377C373.072 512.446 355.693 528.092 323.817 538.543C292.091 548.945 270.916 534.436 247.504 517.945L246.65 517.344C223.486 501.024 198.059 483.108 158.251 486.335C118.344 489.569 95.9398 511.417 75.5713 531.281L74.9758 531.861C54.429 551.895 35.8684 569.623 3.25351 564.525C-62.2235 554.288 -93.1319 502.193 -105.808 445.361C-108.968 431.192 -108.447 421.382 -105.607 413.364C-102.762 405.331 -97.5735 399.039 -91.2648 391.913C-90.6075 391.171 -89.9386 390.42 -89.2596 389.658C-76.8949 375.778 -61.1802 358.138 -51.1467 319.419C-41.7873 283.301 -44.7889 256.975 -47.3841 234.212C-47.7227 231.243 -48.0544 228.334 -48.3508 225.472C-49.635 213.071 -50.2557 201.571 -47.9429 189.798C-45.632 178.034 -40.3857 165.967 -29.8911 152.457C10.9718 99.8542 58.6946 96.1531 120.995 91.3214C122.72 91.1877 124.455 91.0531 126.202 90.9166Z" stroke="#09D8D2"/>
<path d="M132.678 137.982C146.16 141.648 154.828 148.182 161.097 156.369C167.395 164.594 171.299 174.518 175.183 185.052C175.513 185.946 175.843 186.845 176.174 187.746C183.61 208.022 191.658 229.962 217.197 244.384C243.155 259.043 267.335 254.806 289.31 250.955C289.907 250.851 290.503 250.746 291.096 250.643C313.621 246.71 333.646 243.779 351.751 261.691C365.552 275.344 379.917 281.079 391.522 285.713C395.602 287.342 399.341 288.835 402.595 290.488C408.871 293.676 413.369 297.429 415.471 303.81C417.598 310.267 417.334 319.59 413.566 334.058C406.039 362.963 388.212 400.147 365.83 431.575C354.642 447.284 342.335 461.527 329.635 472.569C316.926 483.618 303.879 491.412 291.212 494.312C278.473 497.229 268.557 496.711 259.817 494.404C251.18 492.125 243.655 488.093 235.594 483.774L235.213 483.57C218.784 474.767 200.377 465.083 167.008 467.788C133.674 470.49 112.99 483.157 94.3734 494.696L93.9367 494.967C75.5045 506.393 59.1355 516.54 34.2658 515.137C9.05834 513.714 -18.0299 503.564 -40.0789 488.107C-62.1385 472.643 -79.0285 451.958 -84.0379 429.555C-86.5151 418.476 -84.2022 410.281 -79.1 403.155C-73.9426 395.952 -65.9324 389.827 -56.9053 382.973L-56.609 382.748C-38.6831 369.137 -17.2267 352.845 -8.7064 320.128C-0.860788 290.001 -6.8107 263.008 -12.186 238.622C-12.6646 236.451 -13.1387 234.3 -13.598 232.17C-19.2349 206.028 -22.6317 183.062 -6.04121 161.79C10.6755 140.356 31.6626 130.709 55.2956 128.251C78.9765 125.788 105.322 130.545 132.678 137.982Z" stroke="#09D8D2" stroke-width="2"/>
<path d="M65.2031 142.969C77.873 141.942 90.1111 147.128 102.061 155.955C114.012 164.783 125.622 177.212 137.024 190.58C141.785 196.162 146.516 201.916 151.218 207.635C157.754 215.584 164.235 223.466 170.665 230.727C181.729 243.221 192.722 253.972 203.757 260.224C225.736 272.677 242.861 277.006 259.446 277.809C271.104 278.374 282.506 277.194 295.104 275.89C300.383 275.344 305.872 274.776 311.677 274.305C331.227 272.721 353.358 281.666 369.089 296.863C384.811 312.051 394.078 333.418 388.049 356.66C382.016 379.917 360.595 398.109 335.626 414.474C326.253 420.617 316.405 426.488 306.711 432.268C303.505 434.179 300.316 436.08 297.167 437.977C284.503 445.608 272.481 453.18 262.637 461.096C257.776 465.005 253.362 467.069 249.267 467.735C245.178 468.401 241.365 467.68 237.688 465.947C230.296 462.464 223.499 454.924 216.241 446.416C215.569 445.629 214.894 444.834 214.215 444.034C207.578 436.219 200.511 427.899 192.283 421.547C183.196 414.531 172.657 409.887 159.66 410.941C146.666 411.994 136.497 418.313 127.883 426.752C120.294 434.186 113.883 443.298 107.803 451.94C106.991 453.094 106.185 454.24 105.382 455.372C98.5489 465.017 92.0156 473.652 84.4932 478.353C80.7465 480.695 76.7669 482.051 72.3894 482.071C68.0092 482.091 63.1909 480.772 57.7689 477.7C37.2863 466.095 18.5553 471.299 2.57013 475.74C1.28682 476.097 0.0212145 476.448 -1.22618 476.786C-9.65665 479.068 -17.1941 480.694 -23.8286 479.056C-30.4074 477.432 -36.2039 472.564 -41.0568 461.566C-45.8826 450.63 -45.1165 439.354 -41.0179 427.816C-36.9152 416.267 -29.4855 404.492 -21.0338 392.595C-17.5506 387.693 -13.8871 382.761 -10.2162 377.819C-5.00387 370.802 0.223495 363.764 4.97142 356.761C13.0747 344.809 19.8557 332.855 22.9206 321.04C27.9338 301.715 24.5233 285.474 21.4783 270.973C20.8052 267.768 20.15 264.648 19.6076 261.599C18.1062 253.158 17.4637 245.265 19.605 237.534C21.7427 229.816 26.6725 222.202 36.4256 214.36C46.341 206.387 49.9299 198.107 50.4921 190.1C51.0299 182.439 48.7903 175.069 46.8161 168.572C46.7372 168.313 46.6586 168.054 46.5807 167.797C45.5627 164.439 44.6529 161.337 44.2495 158.527C43.8463 155.719 43.9585 153.261 44.932 151.17C46.8664 147.015 52.3662 144.009 65.2031 142.969Z" stroke="#09D8D2"/>
</g>
</svg>
