<svg width="526" height="597" viewBox="0 0 526 597" fill="none" xmlns="http://www.w3.org/2000/svg">
<path d="M149.83 1C174.777 1 189.341 8.50099 198.562 20.4345C207.851 32.4567 211.839 49.1168 215.259 67.7532C215.836 70.8962 216.395 74.0933 216.962 77.3297C223.085 112.293 230.012 151.849 267.672 177.363C305.742 203.154 346.731 195.299 382.478 188.449C385.357 187.898 388.203 187.352 391.01 186.832C409.931 183.323 427.029 180.941 441.315 184.889C455.473 188.802 467.024 198.987 474.72 221.072C490.281 265.729 498 292.616 498 319.462C498 346.307 490.281 373.194 474.72 417.852C459.16 462.505 448.455 488.494 431.526 510.221C414.593 531.953 391.385 549.484 350.646 577.083C330.383 590.811 314.843 595.596 301.389 595.188C287.922 594.779 276.38 589.167 264.082 581.732C260.933 579.828 257.739 577.808 254.458 575.731C232.117 561.596 205.689 544.875 161.5 544.875C118.694 544.875 88.3799 560.57 61.6733 574.397C56.7883 576.926 52.0241 579.393 47.3262 581.689C32.1105 589.128 17.6243 594.777 1.92157 595.187C-13.7522 595.597 -30.7553 590.789 -50.986 577.083C-91.7255 549.484 -114.933 531.953 -131.866 510.221C-148.795 488.494 -159.5 462.505 -175.06 417.852C-182.807 395.62 -183.51 380.822 -179.909 369.715C-176.309 358.613 -168.348 351.003 -158.262 343.26C-155.657 341.259 -152.915 339.255 -150.082 337.184C-130.996 323.23 -107.771 306.252 -94.1221 267.081C-81.3048 230.298 -85.3848 198.182 -89.0268 169.513C-89.8317 163.177 -90.6153 157.009 -91.1903 150.997C-92.782 134.353 -92.7869 118.913 -87.3979 104.228C-82.0179 89.5672 -71.2178 75.546 -50.986 61.8396C-10.2508 34.2428 14.8071 19.0737 42.2202 10.7683C69.6362 2.46198 99.476 1 149.83 1Z" stroke="#09D8D2" stroke-width="2"/>
<path d="M151.328 60.5456C167.606 60.5924 177.156 60.8573 182.874 62.0827C185.723 62.6933 187.558 63.5309 188.792 64.6496C190.018 65.7602 190.702 67.195 191.156 69.1141C191.556 70.8082 191.766 72.8319 192.022 75.2939C192.058 75.6457 192.096 76.0064 192.135 76.3764C192.446 79.3211 192.856 82.809 193.719 86.9263C195.446 95.1656 198.981 105.898 207.134 119.881C214.803 133.033 216.69 143.611 218.337 152.847C218.425 153.341 218.513 153.831 218.6 154.318C220.329 163.917 222.127 172.143 230.587 180.216C239.01 188.255 253.998 196.107 281.97 205.17C309.957 214.238 351.004 224.535 411.606 237.428C441.895 243.872 464.982 250.065 482.149 256.105C499.328 262.149 510.536 268.025 517.107 273.814C523.656 279.583 525.548 285.213 524.245 290.842C522.926 296.539 518.311 302.359 511.522 308.406C504.746 314.44 495.882 320.634 486.181 327.097C483.276 329.032 480.296 330.991 477.276 332.976C470.222 337.614 462.951 342.395 455.911 347.345C445.855 354.417 436.247 361.853 428.377 369.75C420.509 377.646 414.354 386.026 411.238 394.994C409.415 400.242 407.675 405.325 405.992 410.246C396.281 438.63 388.418 461.613 376.863 479.595C363.339 500.641 344.753 514.832 312.137 522.673C279.674 530.478 259.741 514.306 237.737 495.978L236.934 495.309C215.165 477.171 191.268 457.26 151.329 457.26C111.291 457.26 87.1956 477.227 65.2891 495.38L64.6486 495.911C42.5507 514.219 22.6185 530.39 -9.47787 522.673C-73.9139 507.181 -100.513 452.759 -108.556 395.089C-110.562 380.711 -109.25 370.976 -105.771 363.212C-102.287 355.436 -96.6068 349.583 -89.7431 342.991C-89.028 342.304 -88.3007 341.61 -87.5623 340.905C-74.1167 328.069 -57.0284 311.756 -43.8998 273.974C-31.6532 238.73 -32.5183 212.248 -33.2663 189.35C-33.3639 186.363 -33.4595 183.437 -33.5237 180.56C-33.8019 168.096 -33.4916 156.584 -30.2353 145.036C-26.9816 133.497 -20.7776 121.893 -9.22596 109.275C35.7528 60.1453 83.6187 60.3115 146.106 60.5285C147.836 60.5345 149.576 60.5405 151.328 60.5456Z" stroke="#09D8D2"/>
<path d="M153.981 107.981C167.123 112.723 175.235 119.937 180.822 128.603C186.434 137.31 189.524 147.517 192.545 158.33C192.802 159.248 193.057 160.17 193.314 161.096C199.089 181.906 205.338 204.424 229.628 220.863C254.318 237.571 278.761 235.301 300.975 233.238C301.578 233.182 302.18 233.126 302.78 233.07C325.549 230.97 345.745 229.666 362.345 248.982C374.997 263.706 388.852 270.583 400.045 276.139C403.98 278.092 407.587 279.882 410.696 281.792C416.694 285.477 420.874 289.581 422.454 296.112C424.052 302.719 423.036 311.99 418.112 326.107C408.274 354.309 387.502 389.932 362.654 419.448C350.233 434.202 336.816 447.405 323.265 457.385C309.705 467.371 296.071 474.086 283.211 475.953C270.279 477.831 260.437 476.514 251.911 473.509C243.487 470.539 236.312 465.912 228.626 460.956L228.263 460.722C212.599 450.621 195.035 439.482 161.556 439.482C128.112 439.482 106.473 450.437 86.9851 460.434L86.5279 460.669C67.233 470.568 50.0978 479.36 25.4227 475.952C0.412521 472.498 -25.7673 460.193 -46.4955 443.005C-67.2337 425.809 -82.3975 403.828 -85.5807 381.093C-87.1549 369.85 -84.1875 361.869 -78.5263 355.178C-72.8039 348.415 -64.3251 342.958 -54.7737 336.855L-54.4602 336.655C-35.4934 324.536 -12.7911 310.031 -1.65557 278.109C8.59811 248.715 4.84822 221.33 1.46046 196.589C1.15882 194.386 0.860062 192.204 0.57431 190.044C-2.93233 163.532 -4.46276 140.366 13.792 120.504C32.1855 100.491 53.8834 92.5704 77.6377 92.0299C101.44 91.4883 127.315 98.3579 153.981 107.981Z" stroke="#09D8D2" stroke-width="2"/>
<path d="M86.3239 107.5C99.0354 107.5 110.814 113.658 122.013 123.421C133.211 133.185 143.779 146.512 154.063 160.758C158.358 166.706 162.609 172.823 166.833 178.903C172.706 187.354 178.529 195.734 184.351 203.491C194.37 216.838 204.458 228.442 214.953 235.565C235.854 249.753 252.574 255.451 269.039 257.592C280.613 259.096 292.074 258.841 304.736 258.559C310.041 258.441 315.558 258.318 321.382 258.318C340.996 258.318 362.332 269.022 376.784 285.44C391.228 301.848 398.739 323.894 390.852 346.574C382.959 369.267 360.139 385.669 333.93 399.963C324.091 405.329 313.801 410.386 303.672 415.363C300.322 417.009 296.99 418.646 293.697 420.283C280.459 426.866 267.864 433.442 257.413 440.537C252.252 444.04 247.686 445.741 243.55 446.074C239.421 446.407 235.679 445.38 232.154 443.357C225.067 439.288 218.902 431.223 212.354 422.157C211.749 421.318 211.14 420.471 210.527 419.619C204.543 411.294 198.172 402.43 190.484 395.433C181.993 387.707 171.864 382.227 158.824 382.227C145.788 382.227 135.141 387.703 125.874 395.419C117.709 402.216 110.583 410.78 103.825 418.903C102.922 419.987 102.026 421.065 101.135 422.128C93.5446 431.189 86.3351 439.268 78.4575 443.346C74.5339 445.378 70.4577 446.408 66.0929 446.074C61.7254 445.74 57.0293 444.037 51.8732 440.537C32.3951 427.315 13.3049 430.989 -2.98677 434.124C-4.29469 434.376 -5.58456 434.624 -6.85515 434.86C-15.4424 436.453 -23.0866 437.465 -29.5671 435.297C-35.9933 433.147 -41.3775 427.826 -45.3261 416.472C-49.2526 405.181 -47.5781 394.004 -42.5609 382.835C-37.5386 371.655 -29.1819 360.519 -19.7968 349.344C-15.9289 344.739 -11.879 340.119 -7.82085 335.49C-2.05873 328.917 3.72005 322.325 9.01819 315.728C18.0605 304.469 25.785 293.102 29.7944 281.573C36.3523 262.717 34.265 246.253 32.4013 231.554C31.9894 228.305 31.5883 225.142 31.2941 222.059C30.4795 213.524 30.4767 205.605 33.2355 198.073C35.9898 190.552 41.5185 183.361 51.8732 176.333C62.4003 169.187 66.6464 161.224 67.8536 153.288C69.0085 145.697 67.3716 138.17 65.9287 131.535C65.871 131.269 65.8136 131.005 65.7567 130.743C65.0133 127.314 64.357 124.148 64.1819 121.315C64.0069 118.483 64.3173 116.042 65.4566 114.037C67.7203 110.052 73.4449 107.5 86.3239 107.5Z" stroke="#09D8D2"/>
</svg>
