<svg width="299" height="299" viewBox="0 0 299 299" fill="none" xmlns="http://www.w3.org/2000/svg">
<mask id="mask0" mask-type="alpha" maskUnits="userSpaceOnUse" x="27" y="27" width="245" height="245">
<path d="M180.995 267.262C246.078 249.823 284.701 182.926 267.262 117.843C249.823 52.7601 182.926 14.137 117.843 31.5759C52.7601 49.0148 14.137 115.912 31.5759 180.995C49.0148 246.078 115.912 284.701 180.995 267.262Z" fill="white"/>
</mask>
<g mask="url(#mask0)">
<path fill-rule="evenodd" clip-rule="evenodd" d="M157.482 15.2017C157.768 16.2686 157.135 17.3653 156.068 17.6512C155.001 17.9371 153.904 17.3039 153.618 16.237C153.332 15.1701 153.965 14.0734 155.032 13.7875C156.099 13.5016 157.196 14.1348 157.482 15.2017ZM160.209 33.106C161.276 32.8201 161.909 31.7235 161.623 30.6565C161.337 29.5896 160.24 28.9564 159.174 29.2423C158.107 29.5282 157.473 30.6249 157.759 31.6918C158.045 32.7587 159.142 33.3919 160.209 33.106ZM175.664 28.9649C176.731 28.679 177.364 27.5824 177.078 26.5154C176.792 25.4485 175.695 24.8153 174.628 25.1012C173.561 25.3871 172.928 26.4838 173.214 27.5507C173.5 28.6176 174.597 29.2508 175.664 28.9649ZM192.533 22.3743C192.819 23.4413 192.185 24.5379 191.118 24.8238C190.051 25.1097 188.955 24.4765 188.669 23.4096C188.383 22.3427 189.016 21.246 190.083 20.9601C191.15 20.6742 192.247 21.3074 192.533 22.3743ZM206.573 20.6827C207.64 20.3968 208.273 19.3001 207.987 18.2332C207.702 17.1663 206.605 16.5331 205.538 16.819C204.471 17.1049 203.838 18.2016 204.124 19.2685C204.41 20.3354 205.506 20.9686 206.573 20.6827ZM223.442 14.0921C223.728 15.159 223.095 16.2557 222.028 16.5416C220.961 16.8275 219.864 16.1943 219.579 15.1274C219.293 14.0605 219.926 12.9638 220.993 12.6779C222.06 12.392 223.156 13.0252 223.442 14.0921ZM237.483 12.4005C238.55 12.1146 239.183 11.0179 238.897 9.951C238.611 8.88407 237.515 8.25091 236.448 8.53679C235.381 8.82267 234.747 9.91935 235.033 10.9863C235.319 12.0532 236.416 12.6864 237.483 12.4005ZM171.523 13.5101C172.589 13.2242 173.223 12.1275 172.937 11.0606C172.651 9.99368 171.554 9.36051 170.487 9.6464C169.42 9.93228 168.787 11.029 169.073 12.0959C169.359 13.1628 170.456 13.796 171.523 13.5101ZM188.392 6.91951C188.677 7.98644 188.044 9.08311 186.977 9.369C185.91 9.65488 184.814 9.02171 184.528 7.95478C184.242 6.88785 184.875 5.79118 185.942 5.50529C187.009 5.21941 188.106 5.85257 188.392 6.91951ZM202.432 5.22789C203.499 4.94201 204.132 3.84533 203.846 2.7784C203.56 1.71147 202.464 1.0783 201.397 1.36419C200.33 1.65007 199.697 2.74675 199.983 3.81368C200.269 4.88061 201.365 5.51377 202.432 5.22789ZM219.301 -1.3627C219.587 -0.295771 218.954 0.800903 217.887 1.08679C216.82 1.37267 215.723 0.739505 215.437 -0.327427C215.152 -1.39436 215.785 -2.49103 216.852 -2.77692C217.919 -3.0628 219.015 -2.42964 219.301 -1.3627ZM233.342 -3.05432C234.409 -3.3402 235.042 -4.43688 234.756 -5.50381C234.47 -6.57074 233.373 -7.2039 232.306 -6.91802C231.24 -6.63214 230.606 -5.53546 230.892 -4.46853C231.178 -3.4016 232.275 -2.76843 233.342 -3.05432ZM59.7525 60.0232C60.8195 59.7373 61.4526 58.6406 61.1667 57.5737C60.8808 56.5068 59.7842 55.8736 58.7172 56.1595C57.6503 56.4454 57.0171 57.5421 57.303 58.609C57.5889 59.6759 58.6856 60.3091 59.7525 60.0232ZM75.2073 55.8821C76.2743 55.5962 76.9074 54.4995 76.6215 53.4326C76.3357 52.3657 75.239 51.7325 74.1721 52.0184C73.1051 52.3043 72.472 53.4009 72.7578 54.4679C73.0437 55.5348 74.1404 56.168 75.2073 55.8821ZM92.0764 49.2915C92.3622 50.3584 91.7291 51.4551 90.6621 51.741C89.5952 52.0269 88.4985 51.3937 88.2127 50.3268C87.9268 49.2598 88.5599 48.1632 89.6269 47.8773C90.6938 47.5914 91.7905 48.2246 92.0764 49.2915ZM106.117 47.5999C107.184 47.314 107.817 46.2173 107.531 45.1504C107.245 44.0835 106.149 43.4503 105.082 43.7362C104.015 44.0221 103.382 45.1187 103.667 46.1857C103.953 47.2526 105.05 47.8858 106.117 47.5999ZM122.986 41.0093C123.272 42.0762 122.639 43.1729 121.572 43.4588C120.505 43.7447 119.408 43.1115 119.122 42.0446C118.836 40.9776 119.47 39.881 120.536 39.5951C121.603 39.3092 122.7 39.9424 122.986 41.0093ZM137.027 39.3177C138.094 39.0318 138.727 37.9351 138.441 36.8682C138.155 35.8013 137.058 35.1681 135.991 35.454C134.924 35.7399 134.291 36.8365 134.577 37.9035C134.863 38.9704 135.96 39.6036 137.027 39.3177ZM55.6114 44.5684C56.6783 44.2825 57.3115 43.1858 57.0256 42.1189C56.7397 41.052 55.6431 40.4188 54.5761 40.7047C53.5092 40.9906 52.876 42.0872 53.1619 43.1542C53.4478 44.2211 54.5445 44.8543 55.6114 44.5684ZM73.0352 70.958C73.3211 72.0249 72.688 73.1216 71.621 73.4075C70.5541 73.6933 69.4574 73.0602 69.1715 71.9932C68.8857 70.9263 69.5188 69.8296 70.5858 69.5438C71.6527 69.2579 72.7494 69.891 73.0352 70.958ZM75.7621 88.8623C76.8291 88.5764 77.4622 87.4797 77.1763 86.4128C76.8905 85.3459 75.7938 84.7127 74.7269 84.9986C73.6599 85.2845 73.0268 86.3811 73.3126 87.4481C73.5985 88.515 74.6952 89.1482 75.7621 88.8623ZM91.2169 84.7212C92.2839 84.4353 92.917 83.3386 92.6312 82.2717C92.3453 81.2047 91.2486 80.5716 90.1817 80.8575C89.1147 81.1433 88.4816 82.24 88.7675 83.307C89.0533 84.3739 90.15 85.0071 91.2169 84.7212ZM108.086 78.1306C108.372 79.1975 107.739 80.2942 106.672 80.5801C105.605 80.8659 104.508 80.2328 104.222 79.1658C103.936 78.0989 104.57 77.0022 105.636 76.7164C106.703 76.4305 107.8 77.0636 108.086 78.1306ZM122.127 76.439C123.194 76.1531 123.827 75.0564 123.541 73.9895C123.255 72.9225 122.158 72.2894 121.091 72.5753C120.024 72.8611 119.391 73.9578 119.677 75.0247C119.963 76.0917 121.06 76.7248 122.127 76.439ZM138.996 69.8484C139.281 70.9153 138.648 72.012 137.581 72.2979C136.514 72.5837 135.418 71.9506 135.132 70.8836C134.846 69.8167 135.479 68.72 136.546 68.4342C137.613 68.1483 138.71 68.7814 138.996 69.8484ZM153.036 68.1567C154.103 67.8709 154.736 66.7742 154.45 65.7073C154.165 64.6403 153.068 64.0072 152.001 64.293C150.934 64.5789 150.301 65.6756 150.587 66.7425C150.873 67.8095 151.969 68.4426 153.036 68.1567ZM87.0758 69.2664C88.1428 68.9805 88.7759 67.8838 88.4901 66.8169C88.2042 65.7499 87.1075 65.1168 86.0406 65.4027C84.9736 65.6885 84.3405 66.7852 84.6264 67.8521C84.9122 68.9191 86.0089 69.5522 87.0758 69.2664ZM103.945 62.6758C104.231 63.7427 103.598 64.8394 102.531 65.1252C101.464 65.4111 100.367 64.778 100.081 63.711C99.7953 62.6441 100.428 61.5474 101.495 61.2615C102.562 60.9757 103.659 61.6088 103.945 62.6758ZM117.985 60.9841C119.052 60.6983 119.686 59.6016 119.4 58.5347C119.114 57.4677 118.017 56.8346 116.95 57.1204C115.883 57.4063 115.25 58.503 115.536 59.5699C115.822 60.6369 116.919 61.27 117.985 60.9841ZM134.854 54.3936C135.14 55.4605 134.507 56.5572 133.44 56.843C132.373 57.1289 131.277 56.4958 130.991 55.4288C130.705 54.3619 131.338 53.2652 132.405 52.9793C133.472 52.6935 134.569 53.3266 134.854 54.3936ZM148.895 52.7019C149.962 52.4161 150.595 51.3194 150.309 50.2524C150.023 49.1855 148.927 48.5523 147.86 48.8382C146.793 49.1241 146.16 50.2208 146.446 51.2877C146.731 52.3547 147.828 52.9878 148.895 52.7019ZM71.0662 40.4273C72.1332 40.1414 72.7663 39.0447 72.4804 37.9778C72.1946 36.9109 71.0979 36.2777 70.031 36.5636C68.964 36.8495 68.3309 37.9461 68.6167 39.0131C68.9026 40.08 69.9993 40.7132 71.0662 40.4273ZM165.764 46.1113C166.05 47.1783 165.417 48.2749 164.35 48.5608C163.283 48.8467 162.186 48.2135 161.9 47.1466C161.615 46.0797 162.248 44.983 163.315 44.6971C164.382 44.4112 165.478 45.0444 165.764 46.1113ZM168.491 64.0156C169.558 63.7298 170.191 62.6331 169.905 61.5662C169.619 60.4992 168.523 59.8661 167.456 60.1519C166.389 60.4378 165.756 61.5345 166.042 62.6014C166.327 63.6684 167.424 64.3015 168.491 64.0156ZM183.946 59.8745C185.013 59.5887 185.646 58.492 185.36 57.425C185.074 56.3581 183.977 55.725 182.911 56.0108C181.844 56.2967 181.21 57.3934 181.496 58.4603C181.782 59.5273 182.879 60.1604 183.946 59.8745ZM200.815 53.2839C201.101 54.3509 200.468 55.4476 199.401 55.7334C198.334 56.0193 197.237 55.3862 196.951 54.3192C196.665 53.2523 197.298 52.1556 198.365 51.8697C199.432 51.5838 200.529 52.217 200.815 53.2839ZM214.855 51.5923C215.922 51.3064 216.556 50.2098 216.27 49.1428C215.984 48.0759 214.887 47.4427 213.82 47.7286C212.753 48.0145 212.12 49.1112 212.406 50.1781C212.692 51.245 213.789 51.8782 214.855 51.5923ZM231.724 45.0017C232.01 46.0687 231.377 47.1653 230.31 47.4512C229.243 47.7371 228.147 47.1039 227.861 46.037C227.575 44.9701 228.208 43.8734 229.275 43.5875C230.342 43.3016 231.439 43.9348 231.724 45.0017ZM245.765 43.3101C246.832 43.0242 247.465 41.9276 247.179 40.8606C246.893 39.7937 245.797 39.1605 244.73 39.4464C243.663 39.7323 243.03 40.829 243.316 41.8959C243.601 42.9628 244.698 43.596 245.765 43.3101ZM179.805 44.4197C180.872 44.1338 181.505 43.0372 181.219 41.9702C180.933 40.9033 179.836 40.2701 178.769 40.556C177.703 40.8419 177.069 41.9386 177.355 43.0055C177.641 44.0724 178.738 44.7056 179.805 44.4197ZM196.674 37.8291C196.96 38.8961 196.326 39.9927 195.26 40.2786C194.193 40.5645 193.096 39.9313 192.81 38.8644C192.524 37.7975 193.157 36.7008 194.224 36.4149C195.291 36.129 196.388 36.7622 196.674 37.8291ZM210.714 36.1375C211.781 35.8516 212.414 34.755 212.129 33.688C211.843 32.6211 210.746 31.9879 209.679 32.2738C208.612 32.5597 207.979 33.6564 208.265 34.7233C208.551 35.7902 209.647 36.4234 210.714 36.1375ZM227.583 29.5469C227.869 30.6139 227.236 31.7105 226.169 31.9964C225.102 32.2823 224.006 31.6491 223.72 30.5822C223.434 29.5153 224.067 28.4186 225.134 28.1327C226.201 27.8468 227.297 28.48 227.583 29.5469ZM241.624 27.8553C242.691 27.5694 243.324 26.4727 243.038 25.4058C242.752 24.3389 241.656 23.7057 240.589 23.9916C239.522 24.2775 238.889 25.3742 239.174 26.4411C239.46 27.508 240.557 28.1412 241.624 27.8553ZM86.521 36.2862C87.588 36.0003 88.2211 34.9036 87.9353 33.8367C87.6494 32.7698 86.5527 32.1366 85.4858 32.4225C84.4188 32.7084 83.7857 33.805 84.0716 34.872C84.3574 35.9389 85.4541 36.5721 86.521 36.2862ZM103.39 29.6956C103.676 30.7625 103.043 31.8592 101.976 32.1451C100.909 32.431 99.8122 31.7978 99.5264 30.7309C99.2405 29.6639 99.8736 28.5673 100.941 28.2814C102.008 27.9955 103.104 28.6286 103.39 29.6956ZM117.431 28.004C118.498 27.7181 119.131 26.6214 118.845 25.5545C118.559 24.4875 117.462 23.8544 116.395 24.1403C115.328 24.4261 114.695 25.5228 114.981 26.5898C115.267 27.6567 116.364 28.2899 117.431 28.004ZM134.3 21.4134C134.586 22.4803 133.952 23.577 132.885 23.8629C131.819 24.1487 130.722 23.5156 130.436 22.4486C130.15 21.3817 130.783 20.285 131.85 19.9992C132.917 19.7133 134.014 20.3464 134.3 21.4134Z" fill="white"/>
<path fill-rule="evenodd" clip-rule="evenodd" d="M174.046 77.021C174.332 78.0879 173.699 79.1846 172.632 79.4704C171.565 79.7563 170.469 79.1232 170.183 78.0562C169.897 76.9893 170.53 75.8926 171.597 75.6067C172.664 75.3209 173.76 75.954 174.046 77.021ZM176.773 94.9253C177.84 94.6394 178.473 93.5427 178.187 92.4758C177.902 91.4088 176.805 90.7757 175.738 91.0616C174.671 91.3474 174.038 92.4441 174.324 93.511C174.61 94.578 175.706 95.2111 176.773 94.9253ZM192.228 90.7842C193.295 90.4983 193.928 89.4016 193.642 88.3347C193.356 87.2677 192.26 86.6346 191.193 86.9205C190.126 87.2063 189.493 88.303 189.779 89.3699C190.064 90.4369 191.161 91.07 192.228 90.7842ZM209.097 84.1936C209.383 85.2605 208.75 86.3572 207.683 86.6431C206.616 86.9289 205.519 86.2958 205.233 85.2288C204.948 84.1619 205.581 83.0652 206.648 82.7793C207.715 82.4935 208.811 83.1266 209.097 84.1936ZM223.138 82.5019C224.205 82.2161 224.838 81.1194 224.552 80.0525C224.266 78.9855 223.169 78.3524 222.102 78.6382C221.035 78.9241 220.402 80.0208 220.688 81.0877C220.974 82.1547 222.071 82.7878 223.138 82.5019ZM240.007 75.9114C240.293 76.9783 239.659 78.075 238.593 78.3608C237.526 78.6467 236.429 78.0136 236.143 76.9466C235.857 75.8797 236.49 74.783 237.557 74.4971C238.624 74.2113 239.721 74.8444 240.007 75.9114ZM254.047 74.2197C255.114 73.9339 255.747 72.8372 255.462 71.7702C255.176 70.7033 254.079 70.0702 253.012 70.356C251.945 70.6419 251.312 71.7386 251.598 72.8055C251.884 73.8725 252.98 74.5056 254.047 74.2197ZM188.087 75.3293C189.154 75.0435 189.787 73.9468 189.501 72.8799C189.215 71.8129 188.119 71.1798 187.052 71.4656C185.985 71.7515 185.352 72.8482 185.637 73.9151C185.923 74.9821 187.02 75.6152 188.087 75.3293ZM204.956 68.7388C205.242 69.8057 204.609 70.9024 203.542 71.1882C202.475 71.4741 201.378 70.841 201.092 69.774C200.806 68.7071 201.44 67.6104 202.507 67.3245C203.573 67.0387 204.67 67.6718 204.956 68.7388ZM218.997 67.0471C220.064 66.7613 220.697 65.6646 220.411 64.5976C220.125 63.5307 219.028 62.8975 217.961 63.1834C216.894 63.4693 216.261 64.566 216.547 65.6329C216.833 66.6999 217.93 67.333 218.997 67.0471ZM235.866 60.4565C236.152 61.5235 235.518 62.6201 234.451 62.906C233.384 63.1919 232.288 62.5587 232.002 61.4918C231.716 60.4249 232.349 59.3282 233.416 59.0423C234.483 58.7564 235.58 59.3896 235.866 60.4565ZM249.906 58.7649C250.973 58.479 251.606 57.3824 251.32 56.3154C251.035 55.2485 249.938 54.6153 248.871 54.9012C247.804 55.1871 247.171 56.2838 247.457 57.3507C247.743 58.4176 248.839 59.0508 249.906 58.7649ZM76.317 121.842C77.3839 121.557 78.0171 120.46 77.7312 119.393C77.4453 118.326 76.3486 117.693 75.2817 117.979C74.2148 118.265 73.5816 119.361 73.8675 120.428C74.1534 121.495 75.25 122.128 76.317 121.842ZM91.7718 117.701C92.8387 117.415 93.4719 116.319 93.186 115.252C92.9001 114.185 91.8034 113.552 90.7365 113.838C89.6696 114.124 89.0364 115.22 89.3223 116.287C89.6082 117.354 90.7049 117.987 91.7718 117.701ZM108.641 111.111C108.927 112.178 108.294 113.274 107.227 113.56C106.16 113.846 105.063 113.213 104.777 112.146C104.491 111.079 105.124 109.982 106.191 109.697C107.258 109.411 108.355 110.044 108.641 111.111ZM122.681 109.419C123.748 109.133 124.382 108.037 124.096 106.97C123.81 105.903 122.713 105.27 121.646 105.555C120.579 105.841 119.946 106.938 120.232 108.005C120.518 109.072 121.614 109.705 122.681 109.419ZM139.55 102.829C139.836 103.895 139.203 104.992 138.136 105.278C137.069 105.564 135.973 104.931 135.687 103.864C135.401 102.797 136.034 101.7 137.101 101.414C138.168 101.128 139.265 101.762 139.55 102.829ZM153.591 101.137C154.658 100.851 155.291 99.7544 155.005 98.6874C154.719 97.6205 153.623 96.9873 152.556 97.2732C151.489 97.5591 150.856 98.6558 151.142 99.7227C151.427 100.79 152.524 101.423 153.591 101.137ZM72.1759 106.388C73.2428 106.102 73.876 105.005 73.5901 103.938C73.3042 102.871 72.2075 102.238 71.1406 102.524C70.0737 102.81 69.4405 103.906 69.7264 104.973C70.0123 106.04 71.1089 106.674 72.1759 106.388ZM89.5997 132.777C89.8856 133.844 89.2524 134.941 88.1855 135.227C87.1186 135.513 86.0219 134.879 85.736 133.812C85.4501 132.746 86.0833 131.649 87.1502 131.363C88.2171 131.077 89.3138 131.71 89.5997 132.777ZM92.3266 150.682C93.3935 150.396 94.0267 149.299 93.7408 148.232C93.4549 147.165 92.3582 146.532 91.2913 146.818C90.2244 147.104 89.5912 148.2 89.8771 149.267C90.163 150.334 91.2597 150.967 92.3266 150.682ZM107.781 146.54C108.848 146.255 109.481 145.158 109.196 144.091C108.91 143.024 107.813 142.391 106.746 142.677C105.679 142.963 105.046 144.059 105.332 145.126C105.618 146.193 106.714 146.826 107.781 146.54ZM124.65 139.95C124.936 141.017 124.303 142.113 123.236 142.399C122.169 142.685 121.073 142.052 120.787 140.985C120.501 139.918 121.134 138.821 122.201 138.536C123.268 138.25 124.365 138.883 124.65 139.95ZM138.691 138.258C139.758 137.972 140.391 136.876 140.105 135.809C139.819 134.742 138.723 134.109 137.656 134.394C136.589 134.68 135.956 135.777 136.242 136.844C136.527 137.911 137.624 138.544 138.691 138.258ZM155.56 131.668C155.846 132.735 155.213 133.831 154.146 134.117C153.079 134.403 151.982 133.77 151.696 132.703C151.41 131.636 152.044 130.539 153.111 130.253C154.177 129.968 155.274 130.601 155.56 131.668ZM169.601 129.976C170.668 129.69 171.301 128.593 171.015 127.527C170.729 126.46 169.632 125.826 168.565 126.112C167.498 126.398 166.865 127.495 167.151 128.562C167.437 129.629 168.534 130.262 169.601 129.976ZM103.64 131.086C104.707 130.8 105.34 129.703 105.055 128.636C104.769 127.569 103.672 126.936 102.605 127.222C101.538 127.508 100.905 128.604 101.191 129.671C101.477 130.738 102.573 131.371 103.64 131.086ZM120.509 124.495C120.795 125.562 120.162 126.659 119.095 126.944C118.028 127.23 116.932 126.597 116.646 125.53C116.36 124.463 116.993 123.367 118.06 123.081C119.127 122.795 120.223 123.428 120.509 124.495ZM134.55 122.803C135.617 122.518 136.25 121.421 135.964 120.354C135.678 119.287 134.582 118.654 133.515 118.94C132.448 119.226 131.815 120.322 132.1 121.389C132.386 122.456 133.483 123.089 134.55 122.803ZM151.419 116.213C151.705 117.28 151.072 118.376 150.005 118.662C148.938 118.948 147.841 118.315 147.555 117.248C147.269 116.181 147.903 115.084 148.969 114.799C150.036 114.513 151.133 115.146 151.419 116.213ZM165.46 114.521C166.526 114.235 167.16 113.139 166.874 112.072C166.588 111.005 165.491 110.372 164.424 110.657C163.357 110.943 162.724 112.04 163.01 113.107C163.296 114.174 164.393 114.807 165.46 114.521ZM87.6307 102.247C88.6976 101.961 89.3308 100.864 89.0449 99.797C88.759 98.7301 87.6623 98.0969 86.5954 98.3828C85.5285 98.6687 84.8953 99.7654 85.1812 100.832C85.4671 101.899 86.5637 102.532 87.6307 102.247ZM182.329 107.931C182.614 108.998 181.981 110.094 180.914 110.38C179.847 110.666 178.751 110.033 178.465 108.966C178.179 107.899 178.812 106.802 179.879 106.516C180.946 106.23 182.043 106.864 182.329 107.931ZM185.055 125.835C186.122 125.549 186.756 124.452 186.47 123.385C186.184 122.318 185.087 121.685 184.02 121.971C182.953 122.257 182.32 123.354 182.606 124.421C182.892 125.488 183.989 126.121 185.055 125.835ZM200.51 121.694C201.577 121.408 202.21 120.311 201.924 119.244C201.639 118.177 200.542 117.544 199.475 117.83C198.408 118.116 197.775 119.213 198.061 120.28C198.347 121.347 199.443 121.98 200.51 121.694ZM217.379 115.103C217.665 116.17 217.032 117.267 215.965 117.553C214.898 117.839 213.801 117.205 213.516 116.138C213.23 115.072 213.863 113.975 214.93 113.689C215.997 113.403 217.093 114.036 217.379 115.103ZM231.42 113.412C232.487 113.126 233.12 112.029 232.834 110.962C232.548 109.895 231.452 109.262 230.385 109.548C229.318 109.834 228.685 110.93 228.97 111.997C229.256 113.064 230.353 113.697 231.42 113.412ZM248.289 106.821C248.575 107.888 247.942 108.985 246.875 109.27C245.808 109.556 244.711 108.923 244.425 107.856C244.139 106.789 244.773 105.693 245.839 105.407C246.906 105.121 248.003 105.754 248.289 106.821ZM262.33 105.129C263.396 104.843 264.03 103.747 263.744 102.68C263.458 101.613 262.361 100.98 261.294 101.266C260.227 101.552 259.594 102.648 259.88 103.715C260.166 104.782 261.263 105.415 262.33 105.129ZM196.369 106.239C197.436 105.953 198.069 104.856 197.783 103.789C197.498 102.723 196.401 102.089 195.334 102.375C194.267 102.661 193.634 103.758 193.92 104.825C194.206 105.892 195.302 106.525 196.369 106.239ZM213.238 99.6484C213.524 100.715 212.891 101.812 211.824 102.098C210.757 102.384 209.66 101.751 209.374 100.684C209.089 99.6167 209.722 98.52 210.789 98.2342C211.856 97.9483 212.952 98.5814 213.238 99.6484ZM227.279 97.9568C228.346 97.6709 228.979 96.5742 228.693 95.5073C228.407 94.4403 227.31 93.8072 226.244 94.0931C225.177 94.3789 224.543 95.4756 224.829 96.5425C225.115 97.6095 226.212 98.2426 227.279 97.9568ZM244.148 91.3662C244.434 92.4331 243.801 93.5298 242.734 93.8157C241.667 94.1015 240.57 93.4684 240.284 92.4014C239.998 91.3345 240.631 90.2378 241.698 89.952C242.765 89.6661 243.862 90.2992 244.148 91.3662ZM258.188 89.6746C259.255 89.3887 259.889 88.292 259.603 87.2251C259.317 86.1581 258.22 85.525 257.153 85.8108C256.086 86.0967 255.453 87.1934 255.739 88.2603C256.025 89.3273 257.121 89.9604 258.188 89.6746ZM103.085 98.1054C104.152 97.8195 104.786 96.7229 104.5 95.6559C104.214 94.589 103.117 93.9558 102.05 94.2417C100.983 94.5276 100.35 95.6243 100.636 96.6912C100.922 97.7581 102.019 98.3913 103.085 98.1054ZM119.955 91.5148C120.24 92.5818 119.607 93.6784 118.54 93.9643C117.473 94.2502 116.377 93.617 116.091 92.5501C115.805 91.4832 116.438 90.3865 117.505 90.1006C118.572 89.8147 119.669 90.4479 119.955 91.5148ZM133.995 89.8232C135.062 89.5373 135.695 88.4407 135.409 87.3737C135.123 86.3068 134.027 85.6736 132.96 85.9595C131.893 86.2454 131.26 87.3421 131.546 88.409C131.832 89.4759 132.928 90.1091 133.995 89.8232ZM150.864 83.2326C151.15 84.2995 150.517 85.3962 149.45 85.6821C148.383 85.968 147.286 85.3348 147 84.2679C146.715 83.201 147.348 82.1043 148.415 81.8184C149.482 81.5325 150.578 82.1657 150.864 83.2326Z" fill="white"/>
</g>
</svg>
