<svg width="195" height="97" viewBox="0 0 195 97" fill="none" xmlns="http://www.w3.org/2000/svg">
<path fill-rule="evenodd" clip-rule="evenodd" d="M104.565 22.6807C104.851 23.7476 104.218 24.8443 103.151 25.1302C102.084 25.4161 100.987 24.7829 100.701 23.716C100.416 22.649 101.049 21.5524 102.116 21.2665C103.183 20.9806 104.279 21.6138 104.565 22.6807ZM107.292 40.585C108.359 40.2991 108.992 39.2024 108.706 38.1355C108.42 37.0686 107.324 36.4354 106.257 36.7213C105.19 37.0072 104.557 38.1038 104.843 39.1708C105.128 40.2377 106.225 40.8709 107.292 40.585ZM122.747 36.4439C123.814 36.158 124.447 35.0613 124.161 33.9944C123.875 32.9275 122.779 32.2943 121.712 32.5802C120.645 32.8661 120.011 33.9627 120.297 35.0297C120.583 36.0966 121.68 36.7298 122.747 36.4439ZM139.616 29.8533C139.902 30.9202 139.269 32.0169 138.202 32.3028C137.135 32.5887 136.038 31.9555 135.752 30.8886C135.466 29.8216 136.099 28.725 137.166 28.4391C138.233 28.1532 139.33 28.7864 139.616 29.8533ZM153.656 28.1617C154.723 27.8758 155.357 26.7791 155.071 25.7122C154.785 24.6453 153.688 24.0121 152.621 24.298C151.554 24.5839 150.921 25.6805 151.207 26.7475C151.493 27.8144 152.59 28.4476 153.656 28.1617ZM170.526 21.5711C170.811 22.638 170.178 23.7347 169.111 24.0206C168.044 24.3065 166.948 23.6733 166.662 22.6064C166.376 21.5394 167.009 20.4428 168.076 20.1569C169.143 19.871 170.24 20.5042 170.526 21.5711ZM184.566 19.8795C185.633 19.5936 186.266 18.4969 185.98 17.43C185.694 16.363 184.598 15.7299 183.531 16.0158C182.464 16.3016 181.831 17.3983 182.117 18.4653C182.403 19.5322 183.499 20.1654 184.566 19.8795ZM118.606 20.9891C119.673 20.7032 120.306 19.6065 120.02 18.5396C119.734 17.4727 118.637 16.8395 117.57 17.1254C116.504 17.4113 115.87 18.5079 116.156 19.5749C116.442 20.6418 117.539 21.275 118.606 20.9891ZM135.475 14.3985C135.761 15.4654 135.128 16.5621 134.061 16.848C132.994 17.1339 131.897 16.5007 131.611 15.4338C131.325 14.3668 131.958 13.2701 133.025 12.9843C134.092 12.6984 135.189 13.3315 135.475 14.3985ZM149.515 12.7069C150.582 12.421 151.215 11.3243 150.93 10.2574C150.644 9.19044 149.547 8.55728 148.48 8.84316C147.413 9.12904 146.78 10.2257 147.066 11.2927C147.352 12.3596 148.448 12.9927 149.515 12.7069ZM166.384 6.11627C166.67 7.1832 166.037 8.27988 164.97 8.56576C163.903 8.85164 162.807 8.21848 162.521 7.15155C162.235 6.08461 162.868 4.98794 163.935 4.70206C165.002 4.41617 166.099 5.04934 166.384 6.11627ZM180.425 4.42466C181.492 4.13877 182.125 3.0421 181.839 1.97517C181.553 0.908233 180.457 0.275068 179.39 0.560952C178.323 0.846835 177.69 1.94351 177.976 3.01044C178.261 4.07737 179.358 4.71054 180.425 4.42466ZM6.83577 67.5022C7.9027 67.2163 8.53587 66.1196 8.24999 65.0527C7.9641 63.9857 6.86743 63.3526 5.8005 63.6385C4.73356 63.9244 4.1004 65.021 4.38628 66.088C4.67217 67.1549 5.76884 67.7881 6.83577 67.5022ZM22.2906 63.3611C23.3575 63.0752 23.9907 61.9785 23.7048 60.9116C23.4189 59.8446 22.3222 59.2115 21.2553 59.4974C20.1884 59.7832 19.5552 60.8799 19.8411 61.9469C20.127 63.0138 21.2237 63.647 22.2906 63.3611ZM39.1596 56.7705C39.4455 57.8374 38.8123 58.9341 37.7454 59.22C36.6785 59.5058 35.5818 58.8727 35.2959 57.8057C35.01 56.7388 35.6432 55.6421 36.7101 55.3563C37.7771 55.0704 38.8737 55.7035 39.1596 56.7705ZM53.2002 55.0789C54.2671 54.793 54.9003 53.6963 54.6144 52.6294C54.3285 51.5624 53.2319 50.9293 52.1649 51.2152C51.098 51.501 50.4648 52.5977 50.7507 53.6646C51.0366 54.7316 52.1333 55.3647 53.2002 55.0789ZM70.0692 48.4883C70.3551 49.5552 69.722 50.6519 68.655 50.9378C67.5881 51.2236 66.4914 50.5905 66.2055 49.5235C65.9197 48.4566 66.5528 47.3599 67.6197 47.0741C68.6867 46.7882 69.7834 47.4213 70.0692 48.4883ZM84.1098 46.7966C85.1768 46.5108 85.8099 45.4141 85.5241 44.3472C85.2382 43.2802 84.1415 42.6471 83.0746 42.9329C82.0076 43.2188 81.3745 44.3155 81.6603 45.3824C81.9462 46.4494 83.0429 47.0825 84.1098 46.7966ZM2.69467 52.0474C3.7616 51.7615 4.39476 50.6648 4.10888 49.5979C3.823 48.5309 2.72632 47.8978 1.65939 48.1837C0.592458 48.4695 -0.0407065 49.5662 0.245177 50.6331C0.531061 51.7001 1.62773 52.3332 2.69467 52.0474ZM20.1185 78.4369C20.4044 79.5039 19.7712 80.6005 18.7043 80.8864C17.6374 81.1723 16.5407 80.5392 16.2548 79.4722C15.9689 78.4053 16.6021 77.3086 17.669 77.0227C18.7359 76.7368 19.8326 77.37 20.1185 78.4369ZM22.8454 96.3412C23.9123 96.0554 24.5455 94.9587 24.2596 93.8918C23.9737 92.8248 22.877 92.1917 21.8101 92.4775C20.7432 92.7634 20.11 93.8601 20.3959 94.927C20.6818 95.994 21.7785 96.6271 22.8454 96.3412ZM38.3002 92.2001C39.3671 91.9143 40.0003 90.8176 39.7144 89.7507C39.4285 88.6837 38.3319 88.0506 37.2649 88.3364C36.198 88.6223 35.5648 89.719 35.8507 90.7859C36.1366 91.8529 37.2333 92.486 38.3002 92.2001ZM55.1692 85.6095C55.4551 86.6765 54.8219 87.7732 53.755 88.059C52.6881 88.3449 51.5914 87.7118 51.3055 86.6448C51.0196 85.5779 51.6528 84.4812 52.7197 84.1953C53.7867 83.9094 54.8833 84.5426 55.1692 85.6095ZM69.2098 83.9179C70.2768 83.632 70.9099 82.5354 70.624 81.4684C70.3382 80.4015 69.2415 79.7683 68.1746 80.0542C67.1076 80.3401 66.4745 81.4368 66.7603 82.5037C67.0462 83.5706 68.1429 84.2038 69.2098 83.9179ZM86.0789 77.3273C86.3647 78.3943 85.7316 79.4909 84.6646 79.7768C83.5977 80.0627 82.501 79.4295 82.2151 78.3626C81.9293 77.2957 82.5624 76.199 83.6294 75.9131C84.6963 75.6272 85.793 76.2604 86.0789 77.3273ZM100.119 75.6357C101.186 75.3498 101.82 74.2532 101.534 73.1862C101.248 72.1193 100.151 71.4861 99.0842 71.772C98.0172 72.0579 97.3841 73.1546 97.67 74.2215C97.9558 75.2884 99.0525 75.9216 100.119 75.6357ZM34.1591 76.7453C35.226 76.4594 35.8592 75.3628 35.5733 74.2958C35.2874 73.2289 34.1908 72.5957 33.1238 72.8816C32.0569 73.1675 31.4237 74.2642 31.7096 75.3311C31.9955 76.398 33.0922 77.0312 34.1591 76.7453ZM51.0281 70.1547C51.314 71.2217 50.6808 72.3183 49.6139 72.6042C48.547 72.8901 47.4503 72.2569 47.1644 71.19C46.8785 70.1231 47.5117 69.0264 48.5786 68.7405C49.6456 68.4546 50.7422 69.0878 51.0281 70.1547ZM65.0687 68.4631C66.1357 68.1772 66.7688 67.0806 66.4829 66.0136C66.1971 64.9467 65.1004 64.3135 64.0334 64.5994C62.9665 64.8853 62.3333 65.982 62.6192 67.0489C62.9051 68.1158 64.0018 68.749 65.0687 68.4631ZM81.9377 61.8725C82.2236 62.9395 81.5905 64.0361 80.5235 64.322C79.4566 64.6079 78.3599 63.9747 78.074 62.9078C77.7882 61.8409 78.4213 60.7442 79.4883 60.4583C80.5552 60.1724 81.6519 60.8056 81.9377 61.8725ZM95.9783 60.1809C97.0453 59.895 97.6784 58.7984 97.3926 57.7314C97.1067 56.6645 96.01 56.0313 94.9431 56.3172C93.8761 56.6031 93.243 57.6998 93.5289 58.7667C93.8147 59.8336 94.9114 60.4668 95.9783 60.1809ZM18.1495 47.9063C19.2164 47.6204 19.8496 46.5237 19.5637 45.4568C19.2778 44.3898 18.1811 43.7567 17.1142 44.0426C16.0473 44.3284 15.4141 45.4251 15.7 46.492C15.9859 47.559 17.0825 48.1921 18.1495 47.9063ZM112.847 53.5903C113.133 54.6572 112.5 55.7539 111.433 56.0398C110.366 56.3257 109.27 55.6925 108.984 54.6256C108.698 53.5587 109.331 52.462 110.398 52.1761C111.465 51.8902 112.561 52.5234 112.847 53.5903ZM115.574 71.4946C116.641 71.2087 117.274 70.1121 116.988 69.0451C116.703 67.9782 115.606 67.345 114.539 67.6309C113.472 67.9168 112.839 69.0135 113.125 70.0804C113.411 71.1473 114.507 71.7805 115.574 71.4946ZM131.029 67.3535C132.096 67.0676 132.729 65.971 132.443 64.904C132.157 63.8371 131.061 63.2039 129.994 63.4898C128.927 63.7757 128.294 64.8724 128.58 65.9393C128.865 67.0062 129.962 67.6394 131.029 67.3535ZM147.898 60.7629C148.184 61.8299 147.551 62.9265 146.484 63.2124C145.417 63.4983 144.32 62.8651 144.034 61.7982C143.749 60.7313 144.382 59.6346 145.449 59.3487C146.516 59.0628 147.612 59.696 147.898 60.7629ZM161.939 59.0713C163.006 58.7854 163.639 57.6887 163.353 56.6218C163.067 55.5549 161.97 54.9217 160.903 55.2076C159.836 55.4935 159.203 56.5902 159.489 57.6571C159.775 58.724 160.872 59.3572 161.939 59.0713ZM178.808 52.4807C179.094 53.5476 178.46 54.6443 177.394 54.9302C176.327 55.2161 175.23 54.5829 174.944 53.516C174.658 52.4491 175.291 51.3524 176.358 51.0665C177.425 50.7806 178.522 51.4138 178.808 52.4807ZM192.848 50.7891C193.915 50.5032 194.548 49.4065 194.263 48.3396C193.977 47.2727 192.88 46.6395 191.813 46.9254C190.746 47.2113 190.113 48.3079 190.399 49.3749C190.685 50.4418 191.781 51.075 192.848 50.7891ZM126.888 51.8987C127.955 51.6128 128.588 50.5161 128.302 49.4492C128.016 48.3823 126.92 47.7491 125.853 48.035C124.786 48.3209 124.153 49.4176 124.438 50.4845C124.724 51.5514 125.821 52.1846 126.888 51.8987ZM143.757 45.3081C144.043 46.375 143.41 47.4717 142.343 47.7576C141.276 48.0435 140.179 47.4103 139.893 46.3434C139.607 45.2765 140.241 44.1798 141.308 43.8939C142.374 43.608 143.471 44.2412 143.757 45.3081ZM157.798 43.6165C158.865 43.3306 159.498 42.2339 159.212 41.167C158.926 40.1001 157.829 39.4669 156.762 39.7528C155.695 40.0387 155.062 41.1353 155.348 42.2023C155.634 43.2692 156.731 43.9024 157.798 43.6165ZM174.667 37.0259C174.953 38.0928 174.319 39.1895 173.252 39.4754C172.185 39.7613 171.089 39.1281 170.803 38.0612C170.517 36.9942 171.15 35.8976 172.217 35.6117C173.284 35.3258 174.381 35.959 174.667 37.0259ZM188.707 35.3343C189.774 35.0484 190.407 33.9517 190.121 32.8848C189.836 31.8179 188.739 31.1847 187.672 31.4706C186.605 31.7565 185.972 32.8531 186.258 33.9201C186.544 34.987 187.64 35.6202 188.707 35.3343ZM33.6043 43.7651C34.6712 43.4793 35.3044 42.3826 35.0185 41.3157C34.7326 40.2487 33.6359 39.6156 32.569 39.9014C31.5021 40.1873 30.8689 41.284 31.1548 42.3509C31.4407 43.4179 32.5374 44.051 33.6043 43.7651ZM50.4733 37.1746C50.7592 38.2415 50.126 39.3382 49.0591 39.624C47.9922 39.9099 46.8955 39.2768 46.6096 38.2098C46.3237 37.1429 46.9569 36.0462 48.0238 35.7603C49.0908 35.4745 50.1874 36.1076 50.4733 37.1746ZM64.5139 35.4829C65.5809 35.1971 66.214 34.1004 65.9281 33.0335C65.6422 31.9665 64.5456 31.3334 63.4786 31.6192C62.4117 31.9051 61.7785 33.0018 62.0644 34.0687C62.3503 35.1357 63.447 35.7688 64.5139 35.4829ZM81.3829 28.8923C81.6688 29.9593 81.0357 31.056 79.9687 31.3418C78.9018 31.6277 77.8051 30.9946 77.5192 29.9276C77.2334 28.8607 77.8665 27.764 78.9335 27.4781C80.0004 27.1922 81.0971 27.8254 81.3829 28.8923Z" fill="#223549"/>
</svg>
