<svg width="142" height="141" viewBox="0 0 142 141" fill="none" xmlns="http://www.w3.org/2000/svg">
<g clip-path="url(#clip0)">
<path d="M0.723877 0V141H141.724V0H0.723877ZM137.019 136.295H5.4284V4.70452H137.033V136.295H137.019Z" fill="white"/>
<path d="M37.8992 79.1499H21.0334V71.2593H35.7977V66.6226H21.0334V58.9761H37.6822V54.3529H15.8679V83.7731H37.8992V79.1499Z" fill="white"/>
<path d="M20.9521 103.432L30.1577 117.22H30.334L39.621 103.351V124.447H44.7865V95.0263H39.282L30.334 108.937L21.3723 95.0263H15.8679V124.447H20.9521V103.432Z" fill="white"/>
<path d="M74.3693 119.823H57.517V111.933H72.2678V107.296H57.517V99.6495H74.1659V95.0263H52.3516V124.447H74.3693V119.823Z" fill="white"/>
<path d="M107.111 109.736V109.655C107.111 101.371 100.725 95.0263 91.4789 95.0263H80.5107V124.447H91.4789C100.725 124.447 107.111 118.02 107.111 109.736ZM85.6762 99.7308H91.4789C97.6612 99.7308 101.701 103.974 101.701 109.736V109.818C101.701 115.58 97.6612 119.742 91.4789 119.742H85.6762V99.7308Z" fill="white"/>
</g>
<defs>
<clipPath id="clip0">
<rect width="141" height="141" fill="white" transform="translate(0.723877)"/>
</clipPath>
</defs>
</svg>
