<svg width="118" height="82" viewBox="0 0 118 82" fill="none" xmlns="http://www.w3.org/2000/svg">
<rect width="117.143" height="82" rx="15" fill="white"/>
<rect x="14.6428" y="16.5952" width="25.381" height="5.85714" rx="2.92857" fill="#06BFBF"/>
<rect x="77.119" y="16.5952" width="25.381" height="5.85714" rx="2.92857" fill="#06BFBF"/>
<rect x="45.881" y="16.5952" width="25.381" height="5.85714" rx="2.92857" fill="#06BFBF"/>
<rect x="14.6428" y="31.238" width="25.381" height="5.85714" rx="2.92857" fill="#06BFBF"/>
<rect x="77.119" y="31.238" width="25.381" height="5.85714" rx="2.92857" fill="#06BFBF"/>
<rect x="45.881" y="31.238" width="25.381" height="5.85714" rx="2.92857" fill="#06BFBF"/>
<rect x="14.6428" y="60.5238" width="25.381" height="5.85714" rx="2.92857" fill="#06BFBF"/>
<rect x="77.119" y="60.5238" width="25.381" height="5.85714" rx="2.92857" fill="#06BFBF"/>
<rect x="45.881" y="60.5238" width="25.381" height="5.85714" rx="2.92857" fill="#06BFBF"/>
<rect x="14.6428" y="45.881" width="25.381" height="5.85714" rx="2.92857" fill="#06BFBF"/>
<rect x="77.119" y="45.881" width="25.381" height="5.85714" rx="2.92857" fill="#06BFBF"/>
<rect x="45.881" y="45.881" width="25.381" height="5.85714" rx="2.92857" fill="#06BFBF"/>
</svg>
