<svg width="101" height="100" viewBox="0 0 101 100" fill="none" xmlns="http://www.w3.org/2000/svg">
<path d="M40.5892 48.7893V53.9341H55.6916L54.4469 59.7427H40.5892V60.6555C40.5892 64.1999 41.3242 66.7367 42.7823 68.2896C44.2522 69.8426 46.6468 70.6131 49.966 70.6131C52.0168 70.6131 54.0439 70.459 56.0709 70.1626C58.0862 69.8544 59.8169 69.5699 61.2631 69.2854L61.4291 75.5089C59.6035 75.8408 57.7068 76.1491 55.7509 76.4217C53.7831 76.6944 51.8627 76.8366 49.9778 76.8366C46.9905 76.8366 44.4419 76.4928 42.3437 75.7934C40.2454 75.1059 38.5384 74.0508 37.2344 72.6402C35.9305 71.2295 34.994 69.4751 34.4131 67.365C33.8323 65.2668 33.5478 62.8248 33.5478 60.0628V59.7427H26.6604L27.9051 53.9341H33.5478V48.7893H27.1464L28.3911 42.9807H33.5359V41.736C33.5359 36.0933 34.7925 31.8851 37.3174 29.123C39.8305 26.361 44.0507 24.974 49.966 24.974C51.8508 24.974 53.7712 25.1163 55.739 25.3889C57.7068 25.6615 59.5917 25.9698 61.4172 26.3017L61.2513 32.3592C59.8169 32.0866 58.0862 31.7902 56.0591 31.4939C54.032 31.1857 52.0049 31.0434 49.9541 31.0434C46.6349 31.0434 44.2403 31.8139 42.7704 33.3669C41.3005 34.9198 40.5774 37.4922 40.5774 41.084V42.9926H57.9202L56.6755 48.8012H40.5892V48.7893Z" fill="white"/>
<path d="M85.3747 14.6253C65.8744 -4.87509 34.1523 -4.87509 14.6519 14.6253C5.20404 24.0731 0 36.6269 0 49.9867C0 63.3465 5.20404 75.9002 14.6519 85.3481C24.0998 94.796 36.6535 100 50.0133 100C63.3731 100 75.9268 94.796 85.3747 85.3481C94.8226 75.9002 100.027 63.3465 100.027 49.9867C100.027 36.6269 94.8226 24.0613 85.3747 14.6253ZM26.0676 19.3433C41.3123 7.41784 63.4798 8.44916 77.5153 22.4847C84.865 29.8343 88.9073 39.6023 88.9073 49.9867C88.9073 58.7826 86.003 67.1161 80.6567 73.9324L26.0676 19.3433ZM19.3581 26.041L73.9472 80.6301C67.131 85.9763 58.7974 88.8807 50.0015 88.8807C39.6171 88.8807 29.8492 84.8383 22.4995 77.4887C15.1498 70.139 11.1075 60.371 11.1075 49.9867C11.1193 41.1908 14.0236 32.8572 19.3581 26.041Z" fill="white"/>
</svg>
