<svg width="89" height="89" viewBox="0 0 89 89" fill="none" xmlns="http://www.w3.org/2000/svg">
<path d="M82.3249 0C78.6425 0 75.6499 2.99263 75.6499 6.675V13.35H88.9999V6.675C88.9999 2.99263 86.0073 0 82.3249 0Z" fill="white"/>
<path d="M75.6499 77.875C75.6499 78.2199 75.7278 78.5648 75.8835 78.8652L80.3335 87.7652C80.7118 88.5217 81.4794 89 82.3249 89C83.1704 89 83.938 88.5217 84.3163 87.7652L88.7663 78.8652C88.922 78.5648 88.9999 78.2199 88.9999 77.875V17.8H75.6499V77.875Z" fill="white"/>
<path d="M53.3999 1.30164V13.35H65.4483L53.3999 1.30164Z" fill="white"/>
<path d="M48.95 15.575V0H2.225C0.990125 0 0 0.990125 0 2.225V86.775C0 88.0099 0.990125 89 2.225 89H64.525C65.7599 89 66.75 88.0099 66.75 86.775V17.8H51.175C49.9401 17.8 48.95 16.8099 48.95 15.575ZM15.575 13.35H33.375C34.6099 13.35 35.6 14.3401 35.6 15.575C35.6 16.8099 34.6099 17.8 33.375 17.8H15.575C14.3401 17.8 13.35 16.8099 13.35 15.575C13.35 14.3401 14.3401 13.35 15.575 13.35ZM28.925 57.85H15.575C14.3401 57.85 13.35 56.8599 13.35 55.625C13.35 54.3901 14.3401 53.4 15.575 53.4H28.925C30.1599 53.4 31.15 54.3901 31.15 55.625C31.15 56.8599 30.1599 57.85 28.925 57.85ZM51.175 75.65H42.275C41.0401 75.65 40.05 74.6599 40.05 73.425C40.05 72.1901 41.0401 71.2 42.275 71.2H51.175C52.4099 71.2 53.4 72.1901 53.4 73.425C53.4 74.6599 52.4099 75.65 51.175 75.65ZM51.175 44.5H15.575C14.3401 44.5 13.35 43.5099 13.35 42.275C13.35 41.0401 14.3401 40.05 15.575 40.05H51.175C52.4099 40.05 53.4 41.0401 53.4 42.275C53.4 43.5099 52.4099 44.5 51.175 44.5ZM53.4 28.925C53.4 30.1599 52.4099 31.15 51.175 31.15H15.575C14.3401 31.15 13.35 30.1599 13.35 28.925C13.35 27.6901 14.3401 26.7 15.575 26.7H51.175C52.4099 26.7 53.4 27.6901 53.4 28.925Z" fill="white"/>
</svg>
