<svg width="25" height="25" viewBox="0 0 25 25" fill="none" xmlns="http://www.w3.org/2000/svg">
<path fill-rule="evenodd" clip-rule="evenodd" d="M12.675 0.976074C9.4118 0.976074 9.00539 0.990088 7.72212 1.05015C3.35777 1.25035 0.935357 3.67076 0.735158 8.0351C0.6771 9.31838 0.663086 9.72679 0.663086 12.988C0.663086 16.2513 0.6771 16.6597 0.735158 17.941C0.935357 22.3033 3.35777 24.7277 7.72212 24.9279C9.00539 24.986 9.4118 25 12.675 25C15.9383 25 16.3467 24.986 17.63 24.9279C21.9863 24.7277 24.4187 22.3073 24.6149 17.941C24.673 16.6597 24.687 16.2513 24.687 12.988C24.687 9.72679 24.673 9.31838 24.6149 8.0351C24.4187 3.67676 21.9943 1.24835 17.63 1.05015C16.3467 0.990088 15.9383 0.976074 12.675 0.976074ZM12.675 3.14266C15.8822 3.14266 16.2626 3.15467 17.5299 3.21273C20.7871 3.36087 22.3046 4.90441 22.4548 8.13563C22.5108 9.40289 22.5229 9.78127 22.5229 12.9885C22.5229 16.1957 22.5108 16.576 22.4548 17.8413C22.3046 21.0705 20.7891 22.6181 17.5299 22.7662C16.2626 22.8223 15.8842 22.8363 12.675 22.8363C9.46785 22.8363 9.08747 22.8243 7.82222 22.7662C4.55897 22.616 3.04746 21.0665 2.89731 17.8413C2.84125 16.576 2.82724 16.1957 2.82724 12.9885C2.82724 9.78127 2.84125 9.40089 2.89731 8.13563C3.04546 4.90241 4.56297 3.35887 7.82222 3.21072C9.08747 3.15267 9.46785 3.14266 12.675 3.14266ZM6.50691 12.9883C6.50691 9.58087 9.26966 6.82012 12.675 6.82012C16.0804 6.82012 18.8432 9.58288 18.8432 12.9883C18.8432 16.3957 16.0804 19.1564 12.675 19.1564C9.26966 19.1564 6.50691 16.3957 6.50691 12.9883ZM12.675 16.992C10.4628 16.992 8.67105 15.2002 8.67105 12.988C8.67105 10.7778 10.4628 8.984 12.675 8.984C14.8852 8.984 16.681 10.7758 16.681 12.988C16.681 15.2002 14.8852 16.992 12.675 16.992ZM17.644 6.57729C17.644 5.7805 18.2906 5.13586 19.0854 5.13586C19.8842 5.13586 20.5289 5.7805 20.5289 6.57729C20.5289 7.37408 19.8822 8.01873 19.0854 8.01873C18.2886 8.01873 17.644 7.37208 17.644 6.57729Z" fill="white"/>
</svg>
