<svg width="910" height="909" viewBox="0 0 910 909" fill="none" xmlns="http://www.w3.org/2000/svg">
<path opacity="0.7" d="M385.614 94.0214C408.548 87.4113 423.915 90.4496 435.545 98.9706C447.265 107.558 455.345 121.813 463.43 138.047C464.794 140.784 466.156 143.576 467.535 146.403C482.433 176.932 499.296 211.491 540.712 224.979C582.577 238.612 618.207 220.516 649.265 204.742C651.767 203.471 654.24 202.215 656.683 200.992C673.156 192.749 688.24 186.031 702.414 185.875C716.454 185.721 729.765 192.016 742.69 210.278C768.838 247.223 783.06 269.899 790.174 294.58C797.288 319.261 797.316 346.028 794.842 391.222C792.369 436.413 789.413 463.145 779.606 487.607C769.796 512.075 753.104 534.344 722.953 570.525C707.961 588.516 694.945 597.029 682.475 600.217C669.993 603.408 657.9 601.309 644.62 597.732C641.22 596.816 637.748 595.804 634.18 594.764C609.887 587.687 581.138 579.31 540.487 591.027C501.109 602.377 477.382 624.854 456.486 644.649C452.665 648.27 448.938 651.801 445.227 655.157C433.206 666.03 421.387 675.06 407.064 679.597C392.768 684.125 375.866 684.212 353.634 676.972C308.851 662.388 282.867 652.419 261.541 636.926C240.218 621.436 223.488 600.378 197.342 563.436C184.327 545.048 179.764 531.634 180.131 520.478C180.499 509.328 185.795 500.228 193.018 490.435C194.883 487.905 196.873 485.335 198.93 482.68C212.784 464.788 229.65 443.008 231.821 403.352C233.859 366.115 221.589 337.649 210.64 312.249C208.221 306.636 205.866 301.173 203.744 295.798C197.869 280.915 193.775 266.724 194.838 251.8C195.899 236.902 202.11 221.152 217.079 203.19C247.226 167.012 266.247 146.424 289.25 131.524C312.256 116.621 339.305 107.369 385.614 94.0214Z" stroke="white" stroke-width="2"/>
<path opacity="0.7" d="M380.584 143.114C396.814 138.486 406.407 136.007 412.458 135.586C415.473 135.376 417.546 135.683 419.101 136.446C420.645 137.203 421.742 138.439 422.745 140.222C423.631 141.797 424.422 143.754 425.384 146.133C425.521 146.473 425.662 146.822 425.807 147.179C426.963 150.023 428.373 153.379 430.414 157.233C434.5 164.944 441.102 174.619 453.239 186.209C463.678 196.175 469.586 205.885 474.938 214.68C475.761 216.033 476.571 217.364 477.382 218.671C483.47 228.478 489.627 236.921 501.947 242.774C514.24 248.614 532.615 251.852 563.089 251.427C593.559 251.002 636.18 246.914 697.004 238.058C720.334 241.052 734.168 250.951 741.804 265.266C749.469 279.635 750.933 298.532 749.322 319.574C747.747 340.148 743.241 362.692 738.794 384.936L738.496 386.429C733.957 409.139 729.55 431.488 728.501 450.973C727.977 460.699 727.669 469.125 727.414 476.487C727.389 477.202 727.364 477.907 727.34 478.602C727.117 485.066 726.923 490.678 726.638 495.623C726.005 506.583 724.923 514.192 722.114 520.438C719.313 526.666 714.772 531.587 707.115 537.113C699.446 542.647 688.696 548.757 673.511 557.382C643.401 574.485 618.89 564.092 591.705 552.15L590.715 551.715C563.817 539.896 534.297 526.923 494.514 538.39C454.631 549.885 436.361 576.692 419.749 601.068L419.263 601.78C402.505 626.365 387.286 648.208 353.083 649.737C284.426 652.806 242.294 606.215 217.719 551.066C211.591 537.315 210.101 527.236 211.338 518.498C212.577 509.747 216.558 502.281 221.503 493.743C222.018 492.853 222.543 491.952 223.076 491.038C232.786 474.39 245.124 453.233 247.355 411.826C249.435 373.2 240.97 347.068 233.65 324.47C232.695 321.522 231.759 318.634 230.869 315.786C227.013 303.448 224.015 291.887 223.943 279.444C223.872 267.011 226.721 253.666 234.608 237.776C265.315 175.905 313.059 162.324 375.375 144.597C377.1 144.106 378.837 143.612 380.584 143.114Z" stroke="white"/>
<path opacity="0.7" d="M396.856 189.592C411.319 190.543 421.48 195.404 429.54 202.439C437.637 209.506 443.649 218.793 449.763 228.698C450.282 229.538 450.802 230.383 451.323 231.231C463.052 250.306 475.738 270.936 504.645 280.334C534.028 289.886 557.717 280.61 579.258 272.175C579.842 271.946 580.425 271.718 581.006 271.491C603.086 262.861 622.85 255.754 644.952 270.243C661.779 281.274 677.545 284.145 690.291 286.466C694.775 287.283 698.884 288.031 702.535 289.042C709.574 290.993 714.928 293.885 718.383 299.95C721.878 306.083 723.528 315.62 722.675 331.101C720.972 362.028 710.505 403.487 694.223 440.033C686.085 458.301 676.507 475.31 665.87 489.146C655.226 502.992 643.567 513.602 631.283 519.159C618.933 524.746 608.743 526.261 599.38 525.714C590.13 525.175 581.65 522.624 572.57 519.893L572.14 519.764C553.635 514.2 532.946 508.148 499.602 517.758C466.291 527.359 447.883 544.482 431.34 560.038L430.949 560.405C414.57 575.807 400.015 589.493 374.442 593.185C348.525 596.927 318.902 592.184 293.31 581.01C267.706 569.831 246.278 552.28 236.573 530.532C231.772 519.773 232.437 510.959 236.16 502.658C239.921 494.271 246.806 486.395 254.568 477.573L254.822 477.285C270.239 459.765 288.684 438.803 290.611 403.815C292.385 371.594 280.789 345.395 270.309 321.719C269.377 319.611 268.452 317.523 267.547 315.453C256.441 290.047 248.256 267.392 260.748 242.345C273.331 217.114 292.683 202.986 316.202 195.624C339.767 188.247 367.524 187.662 396.856 189.592Z" stroke="white" stroke-width="2"/>
<path opacity="0.7" d="M329.304 208.56C341.975 204.908 355.483 207.662 369.446 214.175C383.408 220.688 397.765 230.932 412.102 242.171C418.09 246.865 424.081 251.739 430.036 256.583C438.313 263.316 446.52 269.992 454.548 276.048C468.362 286.469 481.743 295.131 494.24 299.213C519.135 307.346 537.427 308.221 554.443 305.626C566.404 303.802 577.747 300.257 590.28 296.341C595.532 294.7 600.994 292.993 606.798 291.32C626.345 285.686 650.68 290.225 669.797 302.434C688.903 314.637 702.721 334.449 701.375 359.318C700.028 384.201 681.997 407.099 659.991 428.866C651.729 437.038 642.929 445.031 634.266 452.899C631.401 455.501 628.552 458.088 625.742 460.665C614.443 471.024 603.784 481.192 595.41 491.261C591.272 496.234 587.209 499.242 583.181 500.763C579.159 502.282 575.132 502.334 571.036 501.329C562.802 499.309 554.341 493.042 545.215 485.89C544.371 485.228 543.521 484.56 542.666 483.886C534.314 477.31 525.422 470.31 515.756 465.548C505.081 460.29 493.42 457.74 480.434 461.483C467.452 465.224 458.421 473.734 451.405 484.081C445.223 493.195 440.584 503.772 436.183 513.805C435.595 515.145 435.011 516.476 434.429 517.792C429.469 528.998 424.605 539.12 417.924 545.449C414.597 548.601 410.829 550.8 406.38 551.722C401.929 552.644 396.758 552.295 390.614 550.288C367.419 542.711 349.461 551.849 334.13 559.651C332.899 560.277 331.685 560.895 330.487 561.494C322.39 565.547 315.061 568.753 307.976 568.454C300.949 568.157 294.052 564.397 286.856 554.216C279.698 544.09 278.157 532.468 279.949 519.897C281.742 507.314 286.871 493.817 293.013 479.989C295.544 474.289 298.252 468.523 300.966 462.746C304.819 454.543 308.683 446.317 312.067 438.223C317.843 424.411 322.274 410.87 322.957 398.236C324.076 377.571 317.271 361.772 311.193 347.663C309.85 344.544 308.542 341.508 307.363 338.519C304.1 330.25 301.822 322.358 302.408 314.057C302.993 305.769 306.438 297.014 314.738 287.035C323.171 276.897 325.113 267.75 324.038 259.502C323.009 251.61 319.218 244.584 315.875 238.387C315.742 238.14 315.609 237.894 315.477 237.649C313.752 234.446 312.188 231.48 311.199 228.705C310.211 225.933 309.818 223.408 310.379 221.078C311.493 216.447 316.473 212.258 329.304 208.56Z" stroke="white"/>
</svg>
