<svg width="108" height="244" viewBox="0 0 108 244" fill="none" xmlns="http://www.w3.org/2000/svg">
<mask id="mask0" mask-type="alpha" maskUnits="userSpaceOnUse" x="-136" y="0" width="244" height="244">
<path d="M-14 244C53.3787 244 108 189.379 108 122C108 54.6213 53.3787 0 -14 0C-81.3787 0 -136 54.6213 -136 122C-136 189.379 -81.3787 244 -14 244Z" fill="white"/>
</mask>
<g mask="url(#mask0)">
<path fill-rule="evenodd" clip-rule="evenodd" d="M-75.4736 -5.55713C-75.4736 -4.45256 -76.3691 -3.55713 -77.4736 -3.55713C-78.5782 -3.55713 -79.4736 -4.45256 -79.4736 -5.55713C-79.4736 -6.6617 -78.5782 -7.55713 -77.4736 -7.55713C-76.3691 -7.55713 -75.4736 -6.6617 -75.4736 -5.55713ZM-77.4736 12.4429C-76.3691 12.4429 -75.4736 11.5474 -75.4736 10.4429C-75.4736 9.3383 -76.3691 8.44287 -77.4736 8.44287C-78.5782 8.44287 -79.4736 9.3383 -79.4736 10.4429C-79.4736 11.5474 -78.5782 12.4429 -77.4736 12.4429ZM-61.4736 12.4429C-60.3691 12.4429 -59.4736 11.5474 -59.4736 10.4429C-59.4736 9.3383 -60.3691 8.44287 -61.4736 8.44287C-62.5782 8.44287 -63.4736 9.3383 -63.4736 10.4429C-63.4736 11.5474 -62.5782 12.4429 -61.4736 12.4429ZM-43.4736 10.4429C-43.4736 11.5474 -44.3691 12.4429 -45.4736 12.4429C-46.5782 12.4429 -47.4736 11.5474 -47.4736 10.4429C-47.4736 9.3383 -46.5782 8.44287 -45.4736 8.44287C-44.3691 8.44287 -43.4736 9.3383 -43.4736 10.4429ZM-29.4736 12.4429C-28.3691 12.4429 -27.4736 11.5474 -27.4736 10.4429C-27.4736 9.3383 -28.3691 8.44287 -29.4736 8.44287C-30.5782 8.44287 -31.4736 9.3383 -31.4736 10.4429C-31.4736 11.5474 -30.5782 12.4429 -29.4736 12.4429ZM-11.4736 10.4429C-11.4736 11.5474 -12.3691 12.4429 -13.4736 12.4429C-14.5782 12.4429 -15.4736 11.5474 -15.4736 10.4429C-15.4736 9.3383 -14.5782 8.44287 -13.4736 8.44287C-12.3691 8.44287 -11.4736 9.3383 -11.4736 10.4429ZM2.52637 12.4429C3.63094 12.4429 4.52637 11.5474 4.52637 10.4429C4.52637 9.3383 3.63094 8.44287 2.52637 8.44287C1.4218 8.44287 0.526367 9.3383 0.526367 10.4429C0.526367 11.5474 1.4218 12.4429 2.52637 12.4429ZM26.5264 -3.55713C27.6309 -3.55713 28.5264 -4.45256 28.5264 -5.55713C28.5264 -6.6617 27.6309 -7.55713 26.5264 -7.55713C25.4218 -7.55713 24.5264 -6.6617 24.5264 -5.55713C24.5264 -4.45256 25.4218 -3.55713 26.5264 -3.55713ZM28.5264 10.4429C28.5264 11.5474 27.6309 12.4429 26.5264 12.4429C25.4218 12.4429 24.5264 11.5474 24.5264 10.4429C24.5264 9.3383 25.4218 8.44287 26.5264 8.44287C27.6309 8.44287 28.5264 9.3383 28.5264 10.4429ZM44.5264 10.4429C44.5264 11.5474 43.6309 12.4429 42.5264 12.4429C41.4218 12.4429 40.5264 11.5474 40.5264 10.4429C40.5264 9.3383 41.4218 8.44287 42.5264 8.44287C43.6309 8.44287 44.5264 9.3383 44.5264 10.4429ZM58.5264 12.4429C59.6309 12.4429 60.5264 11.5474 60.5264 10.4429C60.5264 9.3383 59.6309 8.44287 58.5264 8.44287C57.4218 8.44287 56.5264 9.3383 56.5264 10.4429C56.5264 11.5474 57.4218 12.4429 58.5264 12.4429ZM76.5264 10.4429C76.5264 11.5474 75.6309 12.4429 74.5264 12.4429C73.4218 12.4429 72.5264 11.5474 72.5264 10.4429C72.5264 9.3383 73.4218 8.44287 74.5264 8.44287C75.6309 8.44287 76.5264 9.3383 76.5264 10.4429ZM90.5264 12.4429C91.6309 12.4429 92.5264 11.5474 92.5264 10.4429C92.5264 9.3383 91.6309 8.44287 90.5264 8.44287C89.4218 8.44287 88.5264 9.3383 88.5264 10.4429C88.5264 11.5474 89.4218 12.4429 90.5264 12.4429ZM108.526 10.4429C108.526 11.5474 107.631 12.4429 106.526 12.4429C105.422 12.4429 104.526 11.5474 104.526 10.4429C104.526 9.3383 105.422 8.44287 106.526 8.44287C107.631 8.44287 108.526 9.3383 108.526 10.4429ZM44.5264 -5.55713C44.5264 -4.45256 43.6309 -3.55713 42.5264 -3.55713C41.4218 -3.55713 40.5264 -4.45256 40.5264 -5.55713C40.5264 -6.6617 41.4218 -7.55713 42.5264 -7.55713C43.6309 -7.55713 44.5264 -6.6617 44.5264 -5.55713ZM58.5264 -3.55713C59.6309 -3.55713 60.5264 -4.45256 60.5264 -5.55713C60.5264 -6.6617 59.6309 -7.55713 58.5264 -7.55713C57.4218 -7.55713 56.5264 -6.6617 56.5264 -5.55713C56.5264 -4.45256 57.4218 -3.55713 58.5264 -3.55713ZM76.5264 -5.55713C76.5264 -4.45256 75.6309 -3.55713 74.5264 -3.55713C73.4218 -3.55713 72.5264 -4.45256 72.5264 -5.55713C72.5264 -6.6617 73.4218 -7.55713 74.5264 -7.55713C75.6309 -7.55713 76.5264 -6.6617 76.5264 -5.55713ZM90.5264 -3.55713C91.6309 -3.55713 92.5264 -4.45256 92.5264 -5.55713C92.5264 -6.6617 91.6309 -7.55713 90.5264 -7.55713C89.4218 -7.55713 88.5264 -6.6617 88.5264 -5.55713C88.5264 -4.45256 89.4218 -3.55713 90.5264 -3.55713ZM108.526 -5.55713C108.526 -4.45256 107.631 -3.55713 106.526 -3.55713C105.422 -3.55713 104.526 -4.45256 104.526 -5.55713C104.526 -6.6617 105.422 -7.55713 106.526 -7.55713C107.631 -7.55713 108.526 -6.6617 108.526 -5.55713ZM-59.4736 -5.55713C-59.4736 -4.45256 -60.3691 -3.55713 -61.4736 -3.55713C-62.5782 -3.55713 -63.4736 -4.45256 -63.4736 -5.55713C-63.4736 -6.6617 -62.5782 -7.55713 -61.4736 -7.55713C-60.3691 -7.55713 -59.4736 -6.6617 -59.4736 -5.55713ZM-69.4736 28.4429C-68.3691 28.4429 -67.4736 27.5474 -67.4736 26.4429C-67.4736 25.3383 -68.3691 24.4429 -69.4736 24.4429C-70.5782 24.4429 -71.4736 25.3383 -71.4736 26.4429C-71.4736 27.5474 -70.5782 28.4429 -69.4736 28.4429ZM-67.4736 42.4429C-67.4736 43.5474 -68.3691 44.4429 -69.4736 44.4429C-70.5782 44.4429 -71.4736 43.5474 -71.4736 42.4429C-71.4736 41.3383 -70.5782 40.4429 -69.4736 40.4429C-68.3691 40.4429 -67.4736 41.3383 -67.4736 42.4429ZM-51.4736 42.4429C-51.4736 43.5474 -52.3691 44.4429 -53.4736 44.4429C-54.5782 44.4429 -55.4736 43.5474 -55.4736 42.4429C-55.4736 41.3383 -54.5782 40.4429 -53.4736 40.4429C-52.3691 40.4429 -51.4736 41.3383 -51.4736 42.4429ZM-37.4736 44.4429C-36.3691 44.4429 -35.4736 43.5474 -35.4736 42.4429C-35.4736 41.3383 -36.3691 40.4429 -37.4736 40.4429C-38.5782 40.4429 -39.4736 41.3383 -39.4736 42.4429C-39.4736 43.5474 -38.5782 44.4429 -37.4736 44.4429ZM-19.4736 42.4429C-19.4736 43.5474 -20.3691 44.4429 -21.4736 44.4429C-22.5782 44.4429 -23.4736 43.5474 -23.4736 42.4429C-23.4736 41.3383 -22.5782 40.4429 -21.4736 40.4429C-20.3691 40.4429 -19.4736 41.3383 -19.4736 42.4429ZM-5.47363 44.4429C-4.36906 44.4429 -3.47363 43.5474 -3.47363 42.4429C-3.47363 41.3383 -4.36906 40.4429 -5.47363 40.4429C-6.5782 40.4429 -7.47363 41.3383 -7.47363 42.4429C-7.47363 43.5474 -6.5782 44.4429 -5.47363 44.4429ZM12.5264 42.4429C12.5264 43.5474 11.6309 44.4429 10.5264 44.4429C9.4218 44.4429 8.52637 43.5474 8.52637 42.4429C8.52637 41.3383 9.4218 40.4429 10.5264 40.4429C11.6309 40.4429 12.5264 41.3383 12.5264 42.4429ZM-51.4736 26.4429C-51.4736 27.5474 -52.3691 28.4429 -53.4736 28.4429C-54.5782 28.4429 -55.4736 27.5474 -55.4736 26.4429C-55.4736 25.3383 -54.5782 24.4429 -53.4736 24.4429C-52.3691 24.4429 -51.4736 25.3383 -51.4736 26.4429ZM-37.4736 28.4429C-36.3691 28.4429 -35.4736 27.5474 -35.4736 26.4429C-35.4736 25.3383 -36.3691 24.4429 -37.4736 24.4429C-38.5782 24.4429 -39.4736 25.3383 -39.4736 26.4429C-39.4736 27.5474 -38.5782 28.4429 -37.4736 28.4429ZM-19.4736 26.4429C-19.4736 27.5474 -20.3691 28.4429 -21.4736 28.4429C-22.5782 28.4429 -23.4736 27.5474 -23.4736 26.4429C-23.4736 25.3383 -22.5782 24.4429 -21.4736 24.4429C-20.3691 24.4429 -19.4736 25.3383 -19.4736 26.4429ZM-5.47363 28.4429C-4.36906 28.4429 -3.47363 27.5474 -3.47363 26.4429C-3.47363 25.3383 -4.36906 24.4429 -5.47363 24.4429C-6.5782 24.4429 -7.47363 25.3383 -7.47363 26.4429C-7.47363 27.5474 -6.5782 28.4429 -5.47363 28.4429ZM12.5264 26.4429C12.5264 27.5474 11.6309 28.4429 10.5264 28.4429C9.4218 28.4429 8.52637 27.5474 8.52637 26.4429C8.52637 25.3383 9.4218 24.4429 10.5264 24.4429C11.6309 24.4429 12.5264 25.3383 12.5264 26.4429ZM-43.4736 -5.55713C-43.4736 -4.45256 -44.3691 -3.55713 -45.4736 -3.55713C-46.5782 -3.55713 -47.4736 -4.45256 -47.4736 -5.55713C-47.4736 -6.6617 -46.5782 -7.55713 -45.4736 -7.55713C-44.3691 -7.55713 -43.4736 -6.6617 -43.4736 -5.55713ZM26.5264 28.4429C27.6309 28.4429 28.5264 27.5474 28.5264 26.4429C28.5264 25.3383 27.6309 24.4429 26.5264 24.4429C25.4218 24.4429 24.5264 25.3383 24.5264 26.4429C24.5264 27.5474 25.4218 28.4429 26.5264 28.4429ZM28.5264 42.4429C28.5264 43.5474 27.6309 44.4429 26.5264 44.4429C25.4218 44.4429 24.5264 43.5474 24.5264 42.4429C24.5264 41.3383 25.4218 40.4429 26.5264 40.4429C27.6309 40.4429 28.5264 41.3383 28.5264 42.4429ZM44.5264 42.4429C44.5264 43.5474 43.6309 44.4429 42.5264 44.4429C41.4218 44.4429 40.5264 43.5474 40.5264 42.4429C40.5264 41.3383 41.4218 40.4429 42.5264 40.4429C43.6309 40.4429 44.5264 41.3383 44.5264 42.4429ZM58.5264 44.4429C59.6309 44.4429 60.5264 43.5474 60.5264 42.4429C60.5264 41.3383 59.6309 40.4429 58.5264 40.4429C57.4218 40.4429 56.5264 41.3383 56.5264 42.4429C56.5264 43.5474 57.4218 44.4429 58.5264 44.4429ZM76.5264 42.4429C76.5264 43.5474 75.6309 44.4429 74.5264 44.4429C73.4218 44.4429 72.5264 43.5474 72.5264 42.4429C72.5264 41.3383 73.4218 40.4429 74.5264 40.4429C75.6309 40.4429 76.5264 41.3383 76.5264 42.4429ZM90.5264 44.4429C91.6309 44.4429 92.5264 43.5474 92.5264 42.4429C92.5264 41.3383 91.6309 40.4429 90.5264 40.4429C89.4218 40.4429 88.5264 41.3383 88.5264 42.4429C88.5264 43.5474 89.4218 44.4429 90.5264 44.4429ZM108.526 42.4429C108.526 43.5474 107.631 44.4429 106.526 44.4429C105.422 44.4429 104.526 43.5474 104.526 42.4429C104.526 41.3383 105.422 40.4429 106.526 40.4429C107.631 40.4429 108.526 41.3383 108.526 42.4429ZM44.5264 26.4429C44.5264 27.5474 43.6309 28.4429 42.5264 28.4429C41.4218 28.4429 40.5264 27.5474 40.5264 26.4429C40.5264 25.3383 41.4218 24.4429 42.5264 24.4429C43.6309 24.4429 44.5264 25.3383 44.5264 26.4429ZM58.5264 28.4429C59.6309 28.4429 60.5264 27.5474 60.5264 26.4429C60.5264 25.3383 59.6309 24.4429 58.5264 24.4429C57.4218 24.4429 56.5264 25.3383 56.5264 26.4429C56.5264 27.5474 57.4218 28.4429 58.5264 28.4429ZM76.5264 26.4429C76.5264 27.5474 75.6309 28.4429 74.5264 28.4429C73.4218 28.4429 72.5264 27.5474 72.5264 26.4429C72.5264 25.3383 73.4218 24.4429 74.5264 24.4429C75.6309 24.4429 76.5264 25.3383 76.5264 26.4429ZM90.5264 28.4429C91.6309 28.4429 92.5264 27.5474 92.5264 26.4429C92.5264 25.3383 91.6309 24.4429 90.5264 24.4429C89.4218 24.4429 88.5264 25.3383 88.5264 26.4429C88.5264 27.5474 89.4218 28.4429 90.5264 28.4429ZM108.526 26.4429C108.526 27.5474 107.631 28.4429 106.526 28.4429C105.422 28.4429 104.526 27.5474 104.526 26.4429C104.526 25.3383 105.422 24.4429 106.526 24.4429C107.631 24.4429 108.526 25.3383 108.526 26.4429ZM-27.4736 -5.55713C-27.4736 -4.45256 -28.3691 -3.55713 -29.4736 -3.55713C-30.5782 -3.55713 -31.4736 -4.45256 -31.4736 -5.55713C-31.4736 -6.6617 -30.5782 -7.55713 -29.4736 -7.55713C-28.3691 -7.55713 -27.4736 -6.6617 -27.4736 -5.55713ZM-13.4736 -3.55713C-12.3691 -3.55713 -11.4736 -4.45256 -11.4736 -5.55713C-11.4736 -6.6617 -12.3691 -7.55713 -13.4736 -7.55713C-14.5782 -7.55713 -15.4736 -6.6617 -15.4736 -5.55713C-15.4736 -4.45256 -14.5782 -3.55713 -13.4736 -3.55713ZM4.52637 -5.55713C4.52637 -4.45256 3.63094 -3.55713 2.52637 -3.55713C1.4218 -3.55713 0.526367 -4.45256 0.526367 -5.55713C0.526367 -6.6617 1.4218 -7.55713 2.52637 -7.55713C3.63094 -7.55713 4.52637 -6.6617 4.52637 -5.55713Z" fill="white"/>
<path fill-rule="evenodd" clip-rule="evenodd" d="M-75.4736 58.4429C-75.4736 59.5474 -76.3691 60.4429 -77.4736 60.4429C-78.5782 60.4429 -79.4736 59.5474 -79.4736 58.4429C-79.4736 57.3383 -78.5782 56.4429 -77.4736 56.4429C-76.3691 56.4429 -75.4736 57.3383 -75.4736 58.4429ZM-77.4736 76.4429C-76.3691 76.4429 -75.4736 75.5474 -75.4736 74.4429C-75.4736 73.3383 -76.3691 72.4429 -77.4736 72.4429C-78.5782 72.4429 -79.4736 73.3383 -79.4736 74.4429C-79.4736 75.5474 -78.5782 76.4429 -77.4736 76.4429ZM-61.4736 76.4429C-60.3691 76.4429 -59.4736 75.5474 -59.4736 74.4429C-59.4736 73.3383 -60.3691 72.4429 -61.4736 72.4429C-62.5782 72.4429 -63.4736 73.3383 -63.4736 74.4429C-63.4736 75.5474 -62.5782 76.4429 -61.4736 76.4429ZM-43.4736 74.4429C-43.4736 75.5474 -44.3691 76.4429 -45.4736 76.4429C-46.5782 76.4429 -47.4736 75.5474 -47.4736 74.4429C-47.4736 73.3383 -46.5782 72.4429 -45.4736 72.4429C-44.3691 72.4429 -43.4736 73.3383 -43.4736 74.4429ZM-29.4736 76.4429C-28.3691 76.4429 -27.4736 75.5474 -27.4736 74.4429C-27.4736 73.3383 -28.3691 72.4429 -29.4736 72.4429C-30.5782 72.4429 -31.4736 73.3383 -31.4736 74.4429C-31.4736 75.5474 -30.5782 76.4429 -29.4736 76.4429ZM-11.4736 74.4429C-11.4736 75.5474 -12.3691 76.4429 -13.4736 76.4429C-14.5782 76.4429 -15.4736 75.5474 -15.4736 74.4429C-15.4736 73.3383 -14.5782 72.4429 -13.4736 72.4429C-12.3691 72.4429 -11.4736 73.3383 -11.4736 74.4429ZM2.52637 76.4429C3.63094 76.4429 4.52637 75.5474 4.52637 74.4429C4.52637 73.3383 3.63094 72.4429 2.52637 72.4429C1.4218 72.4429 0.526367 73.3383 0.526367 74.4429C0.526367 75.5474 1.4218 76.4429 2.52637 76.4429ZM26.5264 60.4429C27.6309 60.4429 28.5264 59.5474 28.5264 58.4429C28.5264 57.3383 27.6309 56.4429 26.5264 56.4429C25.4218 56.4429 24.5264 57.3383 24.5264 58.4429C24.5264 59.5474 25.4218 60.4429 26.5264 60.4429ZM28.5264 74.4429C28.5264 75.5474 27.6309 76.4429 26.5264 76.4429C25.4218 76.4429 24.5264 75.5474 24.5264 74.4429C24.5264 73.3383 25.4218 72.4429 26.5264 72.4429C27.6309 72.4429 28.5264 73.3383 28.5264 74.4429ZM44.5264 74.4429C44.5264 75.5474 43.6309 76.4429 42.5264 76.4429C41.4218 76.4429 40.5264 75.5474 40.5264 74.4429C40.5264 73.3383 41.4218 72.4429 42.5264 72.4429C43.6309 72.4429 44.5264 73.3383 44.5264 74.4429ZM58.5264 76.4429C59.6309 76.4429 60.5264 75.5474 60.5264 74.4429C60.5264 73.3383 59.6309 72.4429 58.5264 72.4429C57.4218 72.4429 56.5264 73.3383 56.5264 74.4429C56.5264 75.5474 57.4218 76.4429 58.5264 76.4429ZM76.5264 74.4429C76.5264 75.5474 75.6309 76.4429 74.5264 76.4429C73.4218 76.4429 72.5264 75.5474 72.5264 74.4429C72.5264 73.3383 73.4218 72.4429 74.5264 72.4429C75.6309 72.4429 76.5264 73.3383 76.5264 74.4429ZM90.5264 76.4429C91.6309 76.4429 92.5264 75.5474 92.5264 74.4429C92.5264 73.3383 91.6309 72.4429 90.5264 72.4429C89.4218 72.4429 88.5264 73.3383 88.5264 74.4429C88.5264 75.5474 89.4218 76.4429 90.5264 76.4429ZM108.526 74.4429C108.526 75.5474 107.631 76.4429 106.526 76.4429C105.422 76.4429 104.526 75.5474 104.526 74.4429C104.526 73.3383 105.422 72.4429 106.526 72.4429C107.631 72.4429 108.526 73.3383 108.526 74.4429ZM44.5264 58.4429C44.5264 59.5474 43.6309 60.4429 42.5264 60.4429C41.4218 60.4429 40.5264 59.5474 40.5264 58.4429C40.5264 57.3383 41.4218 56.4429 42.5264 56.4429C43.6309 56.4429 44.5264 57.3383 44.5264 58.4429ZM58.5264 60.4429C59.6309 60.4429 60.5264 59.5474 60.5264 58.4429C60.5264 57.3383 59.6309 56.4429 58.5264 56.4429C57.4218 56.4429 56.5264 57.3383 56.5264 58.4429C56.5264 59.5474 57.4218 60.4429 58.5264 60.4429ZM76.5264 58.4429C76.5264 59.5474 75.6309 60.4429 74.5264 60.4429C73.4218 60.4429 72.5264 59.5474 72.5264 58.4429C72.5264 57.3383 73.4218 56.4429 74.5264 56.4429C75.6309 56.4429 76.5264 57.3383 76.5264 58.4429ZM90.5264 60.4429C91.6309 60.4429 92.5264 59.5474 92.5264 58.4429C92.5264 57.3383 91.6309 56.4429 90.5264 56.4429C89.4218 56.4429 88.5264 57.3383 88.5264 58.4429C88.5264 59.5474 89.4218 60.4429 90.5264 60.4429ZM108.526 58.4429C108.526 59.5474 107.631 60.4429 106.526 60.4429C105.422 60.4429 104.526 59.5474 104.526 58.4429C104.526 57.3383 105.422 56.4429 106.526 56.4429C107.631 56.4429 108.526 57.3383 108.526 58.4429ZM-59.4736 58.4429C-59.4736 59.5474 -60.3691 60.4429 -61.4736 60.4429C-62.5782 60.4429 -63.4736 59.5474 -63.4736 58.4429C-63.4736 57.3383 -62.5782 56.4429 -61.4736 56.4429C-60.3691 56.4429 -59.4736 57.3383 -59.4736 58.4429ZM-69.4736 92.4429C-68.3691 92.4429 -67.4736 91.5474 -67.4736 90.4429C-67.4736 89.3383 -68.3691 88.4429 -69.4736 88.4429C-70.5782 88.4429 -71.4736 89.3383 -71.4736 90.4429C-71.4736 91.5474 -70.5782 92.4429 -69.4736 92.4429ZM-67.4736 106.443C-67.4736 107.547 -68.3691 108.443 -69.4736 108.443C-70.5782 108.443 -71.4736 107.547 -71.4736 106.443C-71.4736 105.338 -70.5782 104.443 -69.4736 104.443C-68.3691 104.443 -67.4736 105.338 -67.4736 106.443ZM-51.4736 106.443C-51.4736 107.547 -52.3691 108.443 -53.4736 108.443C-54.5782 108.443 -55.4736 107.547 -55.4736 106.443C-55.4736 105.338 -54.5782 104.443 -53.4736 104.443C-52.3691 104.443 -51.4736 105.338 -51.4736 106.443ZM-37.4736 108.443C-36.3691 108.443 -35.4736 107.547 -35.4736 106.443C-35.4736 105.338 -36.3691 104.443 -37.4736 104.443C-38.5782 104.443 -39.4736 105.338 -39.4736 106.443C-39.4736 107.547 -38.5782 108.443 -37.4736 108.443ZM-19.4736 106.443C-19.4736 107.547 -20.3691 108.443 -21.4736 108.443C-22.5782 108.443 -23.4736 107.547 -23.4736 106.443C-23.4736 105.338 -22.5782 104.443 -21.4736 104.443C-20.3691 104.443 -19.4736 105.338 -19.4736 106.443ZM-5.47363 108.443C-4.36906 108.443 -3.47363 107.547 -3.47363 106.443C-3.47363 105.338 -4.36906 104.443 -5.47363 104.443C-6.5782 104.443 -7.47363 105.338 -7.47363 106.443C-7.47363 107.547 -6.5782 108.443 -5.47363 108.443ZM12.5264 106.443C12.5264 107.547 11.6309 108.443 10.5264 108.443C9.4218 108.443 8.52637 107.547 8.52637 106.443C8.52637 105.338 9.4218 104.443 10.5264 104.443C11.6309 104.443 12.5264 105.338 12.5264 106.443ZM-51.4736 90.4429C-51.4736 91.5474 -52.3691 92.4429 -53.4736 92.4429C-54.5782 92.4429 -55.4736 91.5474 -55.4736 90.4429C-55.4736 89.3383 -54.5782 88.4429 -53.4736 88.4429C-52.3691 88.4429 -51.4736 89.3383 -51.4736 90.4429ZM-37.4736 92.4429C-36.3691 92.4429 -35.4736 91.5474 -35.4736 90.4429C-35.4736 89.3383 -36.3691 88.4429 -37.4736 88.4429C-38.5782 88.4429 -39.4736 89.3383 -39.4736 90.4429C-39.4736 91.5474 -38.5782 92.4429 -37.4736 92.4429ZM-19.4736 90.4429C-19.4736 91.5474 -20.3691 92.4429 -21.4736 92.4429C-22.5782 92.4429 -23.4736 91.5474 -23.4736 90.4429C-23.4736 89.3383 -22.5782 88.4429 -21.4736 88.4429C-20.3691 88.4429 -19.4736 89.3383 -19.4736 90.4429ZM-5.47363 92.4429C-4.36906 92.4429 -3.47363 91.5474 -3.47363 90.4429C-3.47363 89.3383 -4.36906 88.4429 -5.47363 88.4429C-6.5782 88.4429 -7.47363 89.3383 -7.47363 90.4429C-7.47363 91.5474 -6.5782 92.4429 -5.47363 92.4429ZM12.5264 90.4429C12.5264 91.5474 11.6309 92.4429 10.5264 92.4429C9.4218 92.4429 8.52637 91.5474 8.52637 90.4429C8.52637 89.3383 9.4218 88.4429 10.5264 88.4429C11.6309 88.4429 12.5264 89.3383 12.5264 90.4429ZM-43.4736 58.4429C-43.4736 59.5474 -44.3691 60.4429 -45.4736 60.4429C-46.5782 60.4429 -47.4736 59.5474 -47.4736 58.4429C-47.4736 57.3383 -46.5782 56.4429 -45.4736 56.4429C-44.3691 56.4429 -43.4736 57.3383 -43.4736 58.4429ZM26.5264 92.4429C27.6309 92.4429 28.5264 91.5474 28.5264 90.4429C28.5264 89.3383 27.6309 88.4429 26.5264 88.4429C25.4218 88.4429 24.5264 89.3383 24.5264 90.4429C24.5264 91.5474 25.4218 92.4429 26.5264 92.4429ZM28.5264 106.443C28.5264 107.547 27.6309 108.443 26.5264 108.443C25.4218 108.443 24.5264 107.547 24.5264 106.443C24.5264 105.338 25.4218 104.443 26.5264 104.443C27.6309 104.443 28.5264 105.338 28.5264 106.443ZM44.5264 106.443C44.5264 107.547 43.6309 108.443 42.5264 108.443C41.4218 108.443 40.5264 107.547 40.5264 106.443C40.5264 105.338 41.4218 104.443 42.5264 104.443C43.6309 104.443 44.5264 105.338 44.5264 106.443ZM58.5264 108.443C59.6309 108.443 60.5264 107.547 60.5264 106.443C60.5264 105.338 59.6309 104.443 58.5264 104.443C57.4218 104.443 56.5264 105.338 56.5264 106.443C56.5264 107.547 57.4218 108.443 58.5264 108.443ZM76.5264 106.443C76.5264 107.547 75.6309 108.443 74.5264 108.443C73.4218 108.443 72.5264 107.547 72.5264 106.443C72.5264 105.338 73.4218 104.443 74.5264 104.443C75.6309 104.443 76.5264 105.338 76.5264 106.443ZM90.5264 108.443C91.6309 108.443 92.5264 107.547 92.5264 106.443C92.5264 105.338 91.6309 104.443 90.5264 104.443C89.4218 104.443 88.5264 105.338 88.5264 106.443C88.5264 107.547 89.4218 108.443 90.5264 108.443ZM108.526 106.443C108.526 107.547 107.631 108.443 106.526 108.443C105.422 108.443 104.526 107.547 104.526 106.443C104.526 105.338 105.422 104.443 106.526 104.443C107.631 104.443 108.526 105.338 108.526 106.443ZM44.5264 90.4429C44.5264 91.5474 43.6309 92.4429 42.5264 92.4429C41.4218 92.4429 40.5264 91.5474 40.5264 90.4429C40.5264 89.3383 41.4218 88.4429 42.5264 88.4429C43.6309 88.4429 44.5264 89.3383 44.5264 90.4429ZM58.5264 92.4429C59.6309 92.4429 60.5264 91.5474 60.5264 90.4429C60.5264 89.3383 59.6309 88.4429 58.5264 88.4429C57.4218 88.4429 56.5264 89.3383 56.5264 90.4429C56.5264 91.5474 57.4218 92.4429 58.5264 92.4429ZM76.5264 90.4429C76.5264 91.5474 75.6309 92.4429 74.5264 92.4429C73.4218 92.4429 72.5264 91.5474 72.5264 90.4429C72.5264 89.3383 73.4218 88.4429 74.5264 88.4429C75.6309 88.4429 76.5264 89.3383 76.5264 90.4429ZM90.5264 92.4429C91.6309 92.4429 92.5264 91.5474 92.5264 90.4429C92.5264 89.3383 91.6309 88.4429 90.5264 88.4429C89.4218 88.4429 88.5264 89.3383 88.5264 90.4429C88.5264 91.5474 89.4218 92.4429 90.5264 92.4429ZM108.526 90.4429C108.526 91.5474 107.631 92.4429 106.526 92.4429C105.422 92.4429 104.526 91.5474 104.526 90.4429C104.526 89.3383 105.422 88.4429 106.526 88.4429C107.631 88.4429 108.526 89.3383 108.526 90.4429ZM-27.4736 58.4429C-27.4736 59.5474 -28.3691 60.4429 -29.4736 60.4429C-30.5782 60.4429 -31.4736 59.5474 -31.4736 58.4429C-31.4736 57.3383 -30.5782 56.4429 -29.4736 56.4429C-28.3691 56.4429 -27.4736 57.3383 -27.4736 58.4429ZM-13.4736 60.4429C-12.3691 60.4429 -11.4736 59.5474 -11.4736 58.4429C-11.4736 57.3383 -12.3691 56.4429 -13.4736 56.4429C-14.5782 56.4429 -15.4736 57.3383 -15.4736 58.4429C-15.4736 59.5474 -14.5782 60.4429 -13.4736 60.4429ZM4.52637 58.4429C4.52637 59.5474 3.63094 60.4429 2.52637 60.4429C1.4218 60.4429 0.526367 59.5474 0.526367 58.4429C0.526367 57.3383 1.4218 56.4429 2.52637 56.4429C3.63094 56.4429 4.52637 57.3383 4.52637 58.4429Z" fill="white"/>
</g>
</svg>
