<svg width="25" height="21" viewBox="0 0 25 21" fill="none" xmlns="http://www.w3.org/2000/svg">
<path d="M24.6033 3.29131C23.7204 3.6837 22.7694 3.94796 21.7725 4.06808C22.7915 3.45747 23.5702 2.49251 23.9406 1.34136C22.9877 1.90593 21.9326 2.31634 20.8095 2.53656C19.9126 1.5776 18.6293 0.979004 17.2139 0.979004C14.0307 0.979004 11.6924 3.94796 12.4111 7.03103C8.31705 6.82483 4.68343 4.86287 2.25301 1.8819C0.961727 4.09611 1.58435 6.995 3.77853 8.46246C2.97173 8.43643 2.21297 8.21421 1.54831 7.84584C1.49426 10.1281 3.13189 12.2642 5.50225 12.7407C4.80956 12.9289 4.0488 12.9729 3.27603 12.8248C3.90266 14.7828 5.72647 16.2062 7.88062 16.2462C5.80455 17.8718 3.19595 18.5986 0.579346 18.2902C2.76152 19.6896 5.3501 20.5044 8.13287 20.5044C17.286 20.5044 22.4551 12.7748 22.1428 5.84185C23.1078 5.14916 23.9426 4.28029 24.6033 3.29131V3.29131Z" fill="white"/>
</svg>
